<svg id="Layer_1" data-name="Layer 1" xmlns="http://www.w3.org/2000/svg" viewBox="0 0 198 57.61"><defs><style>.cls-1 {fill: #13284b;}.cls-2 {fill: #a41d36;}</style></defs><g><g><path class="cls-1" d="m43.35,19.01v1.47h-1.76v8.38c0,1.94,1.19,2.89,3.37,2.89s3.39-.95,3.39-2.89v-8.38h-1.78v-1.47h5.43v1.47h-1.76v8.74c0,2.72-2.4,4.12-5.33,4.12s-5.25-1.39-5.25-4.12v-8.74h-1.76v-1.47h5.43Z"></path><path class="cls-1" d="m54.18,31.16v1.98h-2.02v-1.98h2.02Z"></path><path class="cls-1" d="m68.38,19.43v3.19h-1.9v-1.92c-.93-.22-1.72-.4-2.87-.4-2.36,0-3.09,1.15-3.09,2.36,0,1.68,1.25,2.08,3.19,2.34,3.03.34,5.27,1.27,5.27,4.1,0,2.34-1.82,4.24-5.39,4.24-1.68,0-3.37-.28-4.95-.67v-3.25h1.92v1.98c.93.24,1.92.45,3.07.45,2.36,0,3.33-1.23,3.33-2.59,0-1.84-1.45-2.26-3.61-2.56-2.99-.38-4.8-1.19-4.8-3.9,0-2.12,1.57-4,5.09-4,1.7,0,3.17.26,4.75.63Z"></path><path class="cls-1" d="m72.6,31.16v1.98h-2.02v-1.98h2.02Z"></path><path class="cls-1" d="m87.96,19.01c2.83,0,4.16,1.9,4.16,4.2s-1.27,4.36-4.24,4.36h-4.2v4.1h1.94v1.47h-5.59v-1.47h1.76v-11.18h-1.76v-1.47h7.93Zm-4.28,1.49v5.67h3.86c1.88,0,2.62-1.23,2.62-2.91,0-1.57-.69-2.77-2.62-2.77h-3.86Z"></path><path class="cls-1" d="m106.62,26.08c0,4.04-2.38,7.27-6.5,7.27s-6.52-3.23-6.52-7.27,2.42-7.27,6.52-7.27,6.5,3.23,6.5,7.27Zm-10.96,0c0,3.27,1.47,5.61,4.46,5.61s4.46-2.34,4.46-5.61-1.47-5.61-4.46-5.61-4.46,2.34-4.46,5.61Z"></path><path class="cls-1" d="m113.76,19.01v1.47h-1.88v11.18h5.51v-2.32h1.9v3.8h-11.06v-1.47h1.75v-11.18h-1.75v-1.47h5.53Z"></path><path class="cls-1" d="m133.59,26.08c0,4.04-2.38,7.27-6.5,7.27s-6.52-3.23-6.52-7.27,2.42-7.27,6.52-7.27,6.5,3.23,6.5,7.27Zm-10.96,0c0,3.27,1.47,5.61,4.46,5.61s4.46-2.34,4.46-5.61-1.47-5.61-4.46-5.61-4.46,2.34-4.46,5.61Z"></path><path class="cls-1" d="m150.85,19.01v1.47h-1.68l4,11.18h1.41v1.47h-5.19v-1.47h1.7l-1.01-2.91h-5.57l-1.03,2.91h1.8v1.47h-5.19v-1.47h1.42l4.04-11.18h-1.68v-1.47h6.99Zm-4.08,3.09l-1.82,5.23h4.66l-1.82-5.25c-.16-.55-.34-1.19-.5-1.82-.16.65-.34,1.29-.53,1.84Z"></path><path class="cls-1" d="m165.87,19.43v3.19h-1.9v-1.92c-.93-.22-1.72-.4-2.87-.4-2.36,0-3.09,1.15-3.09,2.36,0,1.68,1.25,2.08,3.19,2.34,3.03.34,5.27,1.27,5.27,4.1,0,2.34-1.82,4.24-5.39,4.24-1.68,0-3.37-.28-4.95-.67v-3.25h1.92v1.98c.93.24,1.92.45,3.07.45,2.36,0,3.33-1.23,3.33-2.59,0-1.84-1.45-2.26-3.61-2.56-2.99-.38-4.8-1.19-4.8-3.9,0-2.12,1.57-4,5.09-4,1.7,0,3.17.26,4.75.63Z"></path><path class="cls-1" d="m178.63,19.43v3.19h-1.9v-1.92c-.93-.22-1.72-.4-2.87-.4-2.36,0-3.09,1.15-3.09,2.36,0,1.68,1.25,2.08,3.19,2.34,3.03.34,5.27,1.27,5.27,4.1,0,2.34-1.82,4.24-5.39,4.24-1.68,0-3.37-.28-4.95-.67v-3.25h1.92v1.98c.93.24,1.92.45,3.07.45,2.36,0,3.33-1.23,3.33-2.59,0-1.84-1.45-2.26-3.61-2.56-2.99-.38-4.81-1.19-4.81-3.9,0-2.12,1.57-4,5.09-4,1.7,0,3.17.26,4.74.63Z"></path><path class="cls-1" d="m185.21,19.01l5.53,10.18c.2.38.4.93.56,1.33-.04-.44-.06-1.03-.06-1.47v-8.56h-1.61v-1.47h5.23v1.47h-1.76v12.66h-2.32l-5.82-10.84c-.18-.38-.38-.91-.54-1.27.04.4.06.93.06,1.33v9.31h1.76v1.47h-5.33v-1.47h1.76v-11.18h-1.76v-1.47h4.3Z"></path><path class="cls-1" d="m198,31.16v1.98h-2.02v-1.98h2.02Z"></path></g><g><path class="cls-2" d="m90.5,39.91v1.72h-.82v-1.17c-.61-.17-1.14-.3-1.92-.3-1.55,0-2.06.78-2.06,1.59,0,1.15.87,1.4,2.07,1.57,1.69.22,3.05.7,3.05,2.39,0,1.33-1.01,2.46-3.08,2.46-.99,0-1.94-.18-2.84-.41v-1.77h.82v1.21c.61.18,1.26.32,2.03.32,1.55,0,2.2-.84,2.2-1.76,0-1.26-1.02-1.53-2.35-1.73-1.63-.23-2.77-.64-2.77-2.25,0-1.19.89-2.29,2.92-2.29,1,0,1.83.17,2.73.38Z"></path><path class="cls-2" d="m94.91,39.65v.64h-1.11v7.14h1.11v.64h-3.02v-.64h1.09v-7.14h-1.09v-.64h3.02Z"></path><path class="cls-2" d="m98.8,39.65l3.75,6.54c.12.23.24.52.35.76-.03-.27-.04-.59-.04-.85v-5.81h-1.03v-.64h2.94v.64h-1.11v7.78h-.97l-3.9-6.86c-.12-.23-.25-.51-.35-.72.01.24.02.53.02.77v6.18h1.11v.64h-2.98v-.64h1.09v-7.14h-1.09v-.64h2.21Z"></path><path class="cls-2" d="m111.72,39.93v1.78h-.8v-1.19c-.63-.17-1.33-.28-2.02-.28-2.03,0-3.08,1.53-3.08,3.62s1.06,3.62,3.09,3.62c.68,0,1.38-.11,2.01-.28v-1.19h.8v1.78c-.89.24-1.91.4-2.81.4-2.53,0-3.97-1.96-3.97-4.33s1.39-4.33,3.98-4.33c.91,0,1.91.16,2.8.4Z"></path><path class="cls-2" d="m119.43,39.65v1.81h-.8v-1.18h-3.93v3.09h3.51v.64h-3.51v3.41h3.96v-1.2h.82v1.84h-6.69v-.64h1.09v-7.14h-1.09v-.64h6.65Z"></path><path class="cls-2" d="m125.32,48.07v-.64h1.69v-7.05l-2.14,1.49-.31-.56,2.45-1.66h.83v7.78h1.43v.64h-3.94Z"></path><path class="cls-2" d="m136.39,41.67c0,1-.61,1.81-1.89,2,1.26.1,2.11.93,2.11,2.2,0,1.41-1.03,2.32-2.89,2.32s-2.9-.91-2.9-2.32c0-1.27.87-2.08,2.12-2.19-1.23-.2-1.89-1-1.89-2.01,0-1.23.93-2.14,2.67-2.14s2.66.92,2.66,2.14Zm-4.79,4.1c0,1.03.73,1.77,2.13,1.77s2.12-.73,2.12-1.77c0-1.32-1.02-1.79-2.12-1.79s-2.13.47-2.13,1.79Zm.23-4.03c0,1.09.82,1.63,1.9,1.63s1.89-.54,1.89-1.63c0-.91-.65-1.6-1.89-1.6s-1.9.69-1.9,1.6Z"></path><path class="cls-2" d="m143.85,43.69c0,2.67-1.06,4.5-3.12,4.5-.79,0-1.66-.16-2.44-.44v-1.62h.78v1.18c.51.18,1.08.29,1.66.29,1.55,0,2.27-1.51,2.3-3.65-.52.64-1.3,1.15-2.37,1.15-1.92,0-2.66-1.32-2.66-2.69,0-1.56.97-2.87,2.85-2.87s3,1.55,3,4.16Zm-5.05-1.33c0,1.12.48,2.14,2.01,2.14.94,0,1.73-.52,2.21-1.15-.05-1.9-.77-3.16-2.2-3.16s-2.02.93-2.02,2.18Z"></path><path class="cls-2" d="m151.07,43.86c0,2.72-1.14,4.33-2.96,4.33s-2.96-1.61-2.96-4.33,1.14-4.33,2.96-4.33,2.96,1.61,2.96,4.33Zm-5.09,0c0,2.09.66,3.63,2.13,3.63s2.13-1.54,2.13-3.63-.66-3.63-2.13-3.63-2.13,1.54-2.13,3.63Z"></path></g></g><g><path class="cls-1" d="m2.48,46.43l3.5.64s-.33-.33-.48-.33c-.15-.01-2.81-.4-2.81-.4l-.21.09Z"></path><path class="cls-1" d="m22.48,26.35l-.23.14s.1-.38.12-.63c.02-.27-.6-.61-.6-.61-.27.01-.25.89-.38,1.04-.12.14-.35.7.05.95.4.25.42.56.42.56l.47.98s-.09-.76-.18-1.19c-.09-.42.04-.64.17-.86.13-.22.17-.37.17-.37Z"></path><path class="cls-1" d="m32.38,36.66s.09.34.07.69c-.02.33-.1.33.17.31.26-.02.49.07.23-.06-.25-.13-.23-.47-.26-.7-.02-.23-.21-.24-.21-.24Z"></path><path class="cls-1" d="m17.02,48.12s0,0,0,0c0,0,0,0,0-.02v.02Z"></path><path class="cls-1" d="m26.9,42.82s-.14-.18-.27-.19c0,0-.11-.01-.2.08-.08.09-.03.25-.03.25,0,0,.08-.22.22-.21.13,0,.28.07.28.07Z"></path><path class="cls-1" d="m27.6,29.51c.11.09.19.01.2-.1,0-.11.02-.1-.11-.14-.2-.07-.2.16-.09.24Z"></path><path class="cls-1" d="m27.6,29.64s-.05-.03-.07-.06c.03.04.07.06.07.06Z"></path><path class="cls-1" d="m25.47,20.89c.06-.06.84-1.14.84-1.12-.06-.35-.33-.28-.33-.28,0,0-.94,1.86-.52,1.41Z"></path><path class="cls-1" d="m18.2,19.65c-.34-.06-.21.26.13.28.34.02.19.05.45.11.26.06.44.29.44.29,0,0-.03-.15-.17-.43-.14-.28-.28-.25-.39-.3l-.21-.28s.09.38-.25.32Z"></path><path class="cls-1" d="m26.57,19.42c0,.05.09,0,.27-.06.16-.05.19.07.24.05,0,0,0,0,0,0h0c.11-.05.05-.15.02-.27-.03-.12-.18-.17-.18-.17-.08.06,0,.16-.07.28-.08.13-.29.1-.29.16Z"></path><path class="cls-1" d="m18.22,19.16c-.02-.06-.06-.1-.12-.12-.14-.06-.33.01-.33.01,0,0-.2-.35-.34-.52-.14-.16-.49-.03-.49-.03-.23.14.17.35.32.36.15.01.17.32.39.34.23.01.33.17.33.29,0,.11.35-.09.24-.33Z"></path><path class="cls-1" d="m27.06,19.58s-.02,0-.03,0c-.02,0-.04,0-.06-.01,0,0,0,0,0,0-.56-.07-.55.2-.66.42,0,0-.06.29-.12.48-.01.06-.03.11-.04.14,0,0,0,0,0,.01-.01.04-.06.1-.14.16-.06.05-.13.09-.21.14-.17.11-.38.23-.55.35-.35.24-.26.22-.26.22l-.04.41v.11s-.02.11-.02.11l-.02.2s.1-.03.43-.31c.32-.28,1.4-1.58,1.48-1.73.04-.06.18-.18.28-.31,0,0,.01-.01.02-.02.01-.02.03-.04.04-.07.02-.03.03-.06.04-.08,0-.02.01-.04.01-.06,0-.04-.02-.07-.06-.1-.02-.01-.04-.03-.08-.04Z"></path><path class="cls-1" d="m26.13,18.37s.03.11.02.27c0,.15-.21.4-.21.4l.39-.13s0-.11.13-.29c.12-.18.34-.01.32-.17-.03-.15-.48-.26-.48-.26l-.17.18Z"></path><path class="cls-1" d="m28.82,26.07h0s0,0,.02-.02c.04-.07.15-.25.28-.37.02-.02.04-.04.07-.05.13-.09.2-.2.22-.24,0,0,0-.01,0-.01l-.16-.03-1.64-.32.06.05,1.14.99Z"></path><path class="cls-1" d="m30.04,25.57c.16.11.36.67.36.67l-.28-.81-.02-.06-.35.03s.04.02.09.06c.05.03.12.08.2.13Z"></path><path class="cls-1" d="m29.48,26.43c.59.19.77-.14.77-.14,0,0-.2-.85-.71-.76l.15.59s-.35.26-.21.3Z"></path><path class="cls-1" d="m24.42,24.81s-.02,0-.04,0l-.17.35c-.16.06-.13.27-.12.17.02-.1.19-.1.22-.17.05-.09.08-.16.1-.21,0,0,0-.01,0-.01.04-.08.04-.12.04-.14-.01-.01-.03-.01-.05,0Z"></path><path class="cls-1" d="m24.45,24.73s-.04,0-.06,0c-.04,0-.08,0-.13,0-.09,0-.2.02-.27.05-.04.02-.12.11-.16.2-.04.1-.05.18-.05.18,0,0,.02-.02.04-.08.01-.05.12-.13.31-.13.09,0,.12-.06.19-.16.02,0,.04,0,.07,0,.04-.01.07-.01.08-.02.01,0,0-.02-.03-.02Z"></path><path class="cls-1" d="m20.28,9.76c-.11-.07-.2-.11-.26-.11-.24,0-1.15.11-1.43.37,0,.01-.03.02-.03.04-.22.29.18.01.33-.06.14-.06.76-.26.98-.28.02,0,.04,0,.05,0,0,0,0,0,0,0,.16.01.46.29.88.72.12.13.42.2.28-.03,0,0-.47-.44-.8-.65Z"></path><path class="cls-1" d="m24.66,28.24c-.09.05-.43.23-.51.24-.1.01-.07.24-.07.24l.47-.21.09-.19.04-.09.2-.06c.15-.07.63-.32.63-.32l.13-.08c-.28,0-.57-.02-.83-.03-.05.17-.09.34-.14.5Z"></path><path class="cls-1" d="m26.69,41.79c.19.01.18-.19.18-.19,0,0-.07-.23-.18-.24-.09,0-.14.16-.14.16,0,0,.05.04.08-.03.02-.08.12-.01.15.05.04.06-.07.18-.07.18,0,0-.08-.02-.15-.05-.07-.02-.06.11.13.12Z"></path><polygon class="cls-1" points="24.78 27.75 24.78 27.74 24.82 27.62 24.83 27.57 24.25 27.66 24.04 27.69 24.02 27.69 24.04 27.7 24.56 27.73 24.78 27.75"></polygon><path class="cls-1" d="m30.69,25.91c.3-.19.34-.58.29-.65h0s-.07-.02-.14-.01c-.14.03-.35.09-.4.1-.01,0-.01.01-.01.01h-.06s.27.58.27.58c.02,0,.04-.02.06-.03Z"></path><path class="cls-1" d="m33.27,36.35h0c-.08-.14-.11-.38-.14-.67-.03-.27-.07-.58-.16-.89-.15-.52-.45-.92-.55-1.06.04-.13.13-.4.14-.56,0-.01,0-.03,0-.04,0-.19-.1-.36-.24-.59l-.04-.07s-.02-.06-.03-.09c.01-.06.15-.75.15-.75.05-.35.51-1.09.68-1.34l.02-.03v-.04s0-.03,0-.07c0-.28-.04-1.34-.57-2.42-.53-1.07-1.05-1.51-1.48-1.76.18-.24.25-.47.25-.64,0-.09-.01-.16-.03-.2-.08-.17-.35-.17-.85-.12-.04-.08-.09-.18-.09-.18-.1-.17-.36-.28-.6-.25-.07,0-.2-.12-.28-.24l-.07-.11s-.06.04-.07.05c-.19-.23-.4-.49-.61-.78,0,0,.03-.02.03-.02,0,0-.29-.74-.72-1.51-.32-.56-.36-.94-.38-1.19l-.04-.22c-.04-.19-.17-.48-.23-.61.11-.21.16-.37.17-.49h0c-.02-.54-.93-2.35-1.15-2.79,0,0,.01,0,.01,0,0,0-.02-.02-.03-.03,0-.02-.06-.12-.06-.12,0,0-.02,0-.04,0-.03-.04-.09-.1-.12-.14-.35-1.66-1.34-3.02-1.58-3.29-.23-.27-1.6-.58-1.99-.67,0-.01,0-.03,0-.04,0-.11,0-.23,0-.3,0-.1-.05-.16-.09-.19-.11-.09-.28-.07-.4-.06,0,0-.01,0-.02,0,0,0,0-.01,0-.01,0-.08.01-.16.01-.24,0-.38-.09-.73-.26-1.03,0,0-.01-.03-.01-.03l-.02-.05c-.23-.53-.88-.79-.9-.8,0,0-.01.02-.02.03-.29-.14-.61-.22-.88-.22-1.62,0-2.08.79-2.29,1.38-.05.12-.09.23-.11.32l-.04.22c-.04.21-.07.4-.16.52-.13.18-.19.3-.21.32-.1.08-.2.12-.31.15l-.2.07c-.16.09-.21.29-.21.45,0,.05,0,.1.02.14.03.15.1.19.16.19.06,0,.1-.02.14-.06.09,0,.58.04.58.04.11,0,.27-.02.41-.05.04-.01.09-.02.13-.03,0,.02,0,.03,0,.04,0,.12-.01.32-.04.49v.05s.09.12.14.17c0,.02,0,.03-.01.05l-.05-.03-.06.16s-.45,1.24-.77,1.85c-.15.27-.44.55-.71.78-.1-.17-.17-.32-.17-.32l-.03-.05s-.19-.06-.27-.09c0-.09-.02-.31-.02-.31,0,0-.41-.12-.5-.15-.03-.07-.09-.24-.09-.24l-.02-.02s-.96-.84-1.73-1.05c-.74-.19-1.81-.27-1.89-.28-.01,0-.25-.05-.36-.08,0-.05-.01-.11-.03-.17,0-.03-.05-.12-.23-.27,0,0,0-.03,0-.03,0,0,.03-.13.04-.19.05-.06.21-.26.26-.51,0-.03,0-.06,0-.09,0-.21-.16-.35-.3-.42-.02-.07-.69-.22-.77-.22-.04-.09-.12-.23-.35-.46-.66-.77-1.36-.96-2.39-.68-1.18.31-1.41,1.52-1.49,1.91l-.02.09c-.03.1-.06,1.01-.04,1.09-.03.07-.21.55-.21.55l-.04.08c-.07.14-.19.38-.19.67,0,.11.02.22.06.32.13.31.44.56.93.74.14.05.27.08.41.11t0,0c-.02.07-.28,1.03-.28,1.03,0,0-.05.17-.1.34-.02-.03-.04-.09-.04-.09l-.09.34-.14.55.03.05c-.04.2-.17.81-.28,1.09,0,0-.1.2-.63.38-.63.21-1.9.98-2.03,1.1-.04.03-.37.13-.64.21-.25.08-.52.16-.75.24-.02-.06-.04-.12-.09-.17-.11-.12-.13-.22-.13-.24,0,0,0-.01,0-.03,0-.09-.03-.23-.18-.38-.05-.05-.1-.09-.16-.12.04-.16.45-1.98.45-1.98,0,0-.03-.05-.03-.06.02-.09,3.4-12.61,3.53-13.09,0,0,.01.02.01.02l.07-.25s.43-1.66.52-2.05c.21.27.73.92.73.92h0c.29.28.55.39.76.32.18-.06.29-.23.35-.51.12-.61-.32-1.45-1.55-3.01C5.53.3,5.28,0,5.01,0c-.2,0-.33.15-.53.39l-.09.1c-.39.45-.07.98.15,1.2.04.05.84,1.05.91,1.14-.03.12-.79,2.78-.79,2.78,0,0,.04-.01.07-.02-.12.44-3.44,13-3.47,13.09-.19.12-.32.45-.41,1.06-.09.59-.18.92-.24,1.1-.09.04-.2.14-.29.33l-.08.26v.02s-.06.2-.06.2c-.04.19-.09.38-.14.48-.03.07-.05.17-.05.27,0,.23.09.5.27.69,0,.05-.02.13-.02.22,0,.2.04.45.23.62.25.23.45.21.59.19h.12c.23,0,.33-.09.46-.23l.03-.03s.02-.02.06-.02c.09,0,.19,0,.29-.15.27-.07,1.24-.25,1.28-.25.96-.06,3.03-.89,3.21-1.02l.27-.22c.18-.16.4-.35.67-.53.47-.3.49-.66.49-.71v-.04s-.01-.05-.01-.09c0-.31.21-1.04.28-1.17.07-.01.21-.03.21-.03l.03-.05s.18-.27.2-.3t0,0c.49.46.7.73.8.88.08.12.2.22.32.34,0,0,0,0,0,0,.03.08.05.14.05.14,0,0,.05,0,.12.02.17.17.33.37.44.67.08.24.82,2.39,1.4,2.7l.41.24s.17.1.3.18c-.08.13-.79,1.23-.85,1.32-.28.01-.55.05-.79.09l-.15.02c-.34.05-.52.13-.58.26-.01.03-.01.05-.01.08,0,.02,0,.04,0,.06.02.2.15.55.54.63.13.02.16.06.18.09-.05.08-1.22,1.93-1.22,1.93-.55.91-.68,1.43-.77,1.81-.05.22-.09.38-.2.55l-.06.09c-.27.41-.45.68-.45,1.07,0,.02,0,.04,0,.07,0,0,0,.01,0,.02,0,.3-.26.76-.35.91l-.49.97s.55-.19.75-.25c-.02.06-.04.12-.07.19-.09.23-.13.43-.13.59,0,.39.22.63.43.85l.04.04c.31.33.8.59.94.66.05.02.12.04.22.05t0,.01l-.02.03-3.41,6.3s-1.42,2.46-1.71,2.97c-.65-.06-2.26.05-2.51.23-.23.18-.18.43-.16.56v.05c.02.25.25.39.28.41h.02s.02.01.02.01c.05.02,1.21.39,1.87.49.64.09,2,.23,2.47.27.54.04.64-.21.66-.3h0s.02-.1.02-.2c0-.13-.03-.28-.13-.41-.15-.18-1.15-.66-1.83-.91.17-.32,1.56-2.87,1.56-2.87l3.28-5.98c.07.08.15.17.23.26.52.55.71.79.77,1.15.08.42.57,1.47.59,1.52l.02.03.04.02s.05.02.15.1c0,.04-.04.14-.04.14,0,0,0,.03,0,.05h-.01s-.27.33-.33.62c-.05.24-.07.8-.07.96-.04.04-.08.08-.1.13-.16.26-.84.97-1.21,1.16-.21.1-1,.61-1,.91,0,0,0,.02,0,.03.04.22.54.59.82.64.29.06,1.06-.04,1.55-.24.38,0,.44-.04.48-.11v.02s.07-.1.11-.16c.11,0,.7.01.7.01h.44c.09.37.2.7.28.91.25.68.59,1,.71,1.11,0,.09.05.64.05.64.02.25.13.49.2.63-.05.05-.07.12-.07.19h-.01s-.08.86-.08.86l.45.99s.04.11.06.16c0,.05-.14,2.07-.14,2.07h0s.06.24.06.24c.03.09.06.16.1.21.02.05.03.07.03.09-.04,0-.09.02-.09.02l.04.13c.09.24.23.63.25.72,0,0,0,.02,0,.04,0,.08-.05.19-.3.57-.19.3-.31.59-.37.78-.02.03-.14.24-.14.24l.06.06s.26.26,1.1.31c.01,0,.04,0,.04,0h.02s.05,0,.05,0h.19c.75,0,.87-.24.89-.31,0-.02.02-.08-.05-.29-.08-.34-.28-.98-.34-1.18-.07-.21-.04-.5.07-.64.11-.14.28-.44.39-.68,0,0,.08-.11.08-.11l.02-.03v-.03c.06-.56-.53-.99-.81-1.11-.1-.04-.03-.42.02-.67.04-.18.07-.36.08-.53.02-.33-.03-.45-.09-.56-.03-.08-.07-.15-.08-.32-.04-.4.11-.7.11-.7l.19-.37s-.06.04-.11.06c.06-.15.11-.37.18-.66.1-.46.13-.72.13-.9,0-.15-.02-.23-.05-.3l-.02-.08c-.02-.09-.07-.17-.13-.27-.11-.17-.27-.44-.4-.98-.14-.6-.17-1.52-.18-1.98.11.12.25.29.35.49.18.37.42.64.51.74,0,.04-.02.07-.02.11,0,.21.09.42.16.61.08.17.22.4.28.49-.04.13-.08.24-.09.26-.02.03-.03.06-.04.11v.04c0,.17.1.42.33.64.05.04.09.07.12.09,0,.12-.02,1.41-.02,1.41v-.04c0,.07-.02.15-.02.21,0,.06,0,.12.02.17.02.12.06.21.1.27-.04.07-.09.15-.1.23,0,.08-.13.58-.34,1.2-.05.17-.08.3-.08.4,0,.09.02.16.06.21.1.13.26.13.42.13h.04c.29,0,.49-.14.68-.26l.06-.04c.12-.07.31,0,.39.02,0,0,0,0,0,0-.02.1-.05.25-.05.43,0,.04,0,.08,0,.13.03.3.33.57.45.66,0,.04,0,.08,0,.12-.06.08-.1.17-.1.26,0,.06.02.12.04.19,0,0-.03.06-.03.06v.03s.03.13.11.27c.06.11.15.18.25.22,0,0,0,0,0,0,.08.18.12.39.12.62,0,.28-.06.59-.18.88-.24.59-.41,1.16-.41,1.17l-.04.12s.07.01.12.02c.01.01.05.06.1.2.09.25.1.7.1.87,0,.04,0,.06,0,.06,0,0,0,.07-.01.11-.03.03-.13.14-.13.14l.38.6.11-.1s.14-.11.23-.12c.06.12.16.11.19.1.31-.05.59-.03.86-.01h.12s0,.01.02.01c0,.02-.02.03-.04.05l-.17.18.25.03c.14.02.26.03.35-.05.07-.06.08-.15.08-.27v-.38c0-.13-.04-.26-.08-.38,0,0,0-.02,0-.02,0-.01,0-.03,0-.07,0-.1-.03-.3-.19-.68-.21-.47-.33-1.67-.33-1.72,0-.06.02-.93.04-1.45.02,0,.03.01.06.01.11,0,.25-.06.38-.15-.02.07-.03.13-.03.19,0,.15.06.25.08.3,0,.01.01.03.01.05,0,.07-.03.18-.06.3l-.06.21c-.02.07-.02.13-.02.19,0,.25.11.39.11.4l.04.04h.06c.15.02,1.43.13,1.7.07.27-.06.64-.27.66-.28l.06-.03v-.06c.01-.09.04-.33.1-.44.03-.05.03-.09.03-.13,0-.09-.05-.15-.09-.19-.05-.05-.1-.11-.1-.27,0-.28-.07-.46-.12-.58l-.04-.1c-.02-.12-.13-.19-.25-.27-.08-.06-.22-.14-.23-.2v-.03c0-.09.05-.21.09-.32.04-.12.09-.23.09-.34h0s0-.06-.01-.09c.04-.04.06-.09.07-.16v-.03c0-.17-.1-.31-.23-.48l-.17-.24c-.18-.28-.45-1.11-.5-1.67,0-.03.18-1.24.22-1.5.03-.01.06-.03.09-.07.05-.06.11-.17.11-.28,0-.01,0-.02-.01-.03.15-.26.98-1.73,1.06-2.19.01-.07.02-.16.02-.25,0-.32-.05-.77-.11-1.24-.05-.46-.11-.93-.11-1.24v-.03c0-.64.11-1.81.14-2.07,0-.02.03-.09.05-.14.29-.2.46-.21.53-.2.07.02.1.06.1.06h0s.01.03.01.03c.03.03.33.33.65.3.4-.03.54-.24.59-.4.03-.12.18-.21.36-.31,0,0,.06-.03.06-.03v.03c-.02.05-.1.23-.1.5,0,.06,0,.12.01.19.04.32.18.71.23.86-.15.21-.23.45-.23.67,0,.21.07.41.2.56.16.18.16.43.16.65v.19s0,.03,0,.05c0,.23-.12.49-.23.59-.19.16-.28.34-.46.78,0,0,0,.02-.02.04,0,0-.02-.02-.02-.02,0,0-.15.46-.18.52h0c-.18.03-.47.34-.55.43l-.06.07.06.09s.02.03.02.1c0,.08-.02.19-.11.37-.22.45-.33.9-.33.91l-.04.17.82-.08c.18-.01.43-.1.59-.16,0,.03,0,.05,0,.09,0,.15-.01.38-.05.73,0,.07-.01.14-.01.21,0,.25.06.45.19.59.25.29.72.37,1.35.39.92.03,1.07-.3,1.16-.69l.03-.12c.03-.1.04-.22.04-.36,0-.17-.02-.35-.03-.54-.01-.16-.03-.31-.03-.43,0-.03,0-.05,0-.08,0-.03,0-.07,0-.11,0-.32-.09-.67-.3-.82-.11-.07-.23-.09-.33-.11-.05-.01-.17-.03-.18-.06,0,0,0-.02,0-.03,0-.11.12-.31.2-.44h0s.07.08.07.08l.07-.22s.14-.47.16-.78c0-.02,0-.03,0-.05,0-.17-.06-.33-.12-.46-.04-.1-.08-.2-.08-.27h0s0-.08,0-.09c0-.02.02-.06.02-.06h-.02s.08-.12.08-.12c.06-.1.15-.28.3-.42.26-.23.55-.48.61-.71,0,0,.11-.32.11-.32.15-.43.28-.81.29-.97v-.04c0-.18-.09-.36-.15-.45.03-.07.08-.19.12-.28.11,0,.43.03.53.04.22.47.7,1.38,1.08,1.28.44-.11.87-.35,1.01-1.29.02-.11.03-.23.02-.35,0-.28-.05-.58-.14-.89.06.08.11.15.18.2.4.32.85.39,1.25.2.35-.16.4-.54.45-.84l.03-.17c.01-.07.02-.13.02-.21,0-.28-.09-.6-.26-.92ZM4.7.62s0-.06.02-.13c.02-.08.07-.17.18-.18.12-.01.32.08.64.42.17.18.37.43.61.76.02.02.04.04.05.06.78,1.11,1.16,1.64,1.31,2.08.08.24.09.45.09.6,0,.12-.02.19-.02.19,0,0,0-.01-.02-.05-.12-.25-.71-1.44-1.33-2.22-.69-.87-1.53-1.52-1.53-1.52Zm1.88,46.41c.05.05.05.1.01.13-.1.1-.47.11-.77.09-.4-.02-3.5-.64-3.5-.64,0,0-.18-.18-.3-.03,0,0-.01.02-.02.03-.11.19-.09-.04-.09-.04,0,0,.1-.3.46-.35.56-.01,1.47-.08,1.98-.04,0,0,.07.02.18.05,0,0,.01,0,.02,0,.52.17,1.88.62,2.03.79Zm-1.83-.93s-.06-.02-.1-.04c0,0,0,0-.01,0-.04-.02-.08-.03-.11-.04.07-.12,1.65-2.86,1.71-2.95.04.03.08.04.13.07-.06.11-1.57,2.88-1.62,2.97Zm26.63-19.57c.12.06.25.16.35.35.02.03.04.07.05.09.35.64.36.64.36.64.22.52.47,1.3.27,1.95-.19.65-.38,1.14-.38,1.14l-.19.08c-.15-.98-.32-2.15-.49-2.92-.1-.48-.25-.94-.41-1.36.13-.03.29-.04.44.03Zm-2.1,7.5c-.04.1-.24.3-.37.43l-.13-.02s-.13-.23-.31-.46l-.22-.42.49-1.69s0-1.09.03-.79c.03.31.58,1.26.45.74-.12-.52.26-.84.26-.84l.14-.17-.11,2.12-.47.98s.3-.03.24.12Zm-5.82-4.19c-.03-.05-.09-.1-.16-.13-.15-.08-.39-.13-.71-.15-.83-.06-1.56.72-1.77.97-.04-.08-.08-.16-.11-.2.14-.16.84-.95,1.53-1.11.09-.02.17-.03.26-.03.27,0,.61.13.85.34.02.02.04.04.06.05.05.04.08.09.12.14.08.11.13.24.14.37,0,.06,0,.11,0,.16,0,.02,0,.05,0,.07,0,.03,0,.06,0,.08-.04-.06-.09-.18-.18-.41,0,0,0,0,0-.01,0-.03,0-.07-.04-.12Zm-.93,0l-.07.44-.16-.42.23-.02Zm-1.57,2.51c0,.08,0,.18-.01.3-.02.32-.36.18-.43.07l.03-.1s.2.14.27.04c.09-.09.03-.4.03-.4l.02-.02.09-.1h0s0,.08,0,.21Zm-.86.32c-.18-.13-1.84-.88-2.84-1.71-1.01-.83-1.5-.9-1.22-1.56.27-.67.32-.32.18.01-.14.32-.22.47.84,1.19,1.05.71,2.95,1.83,2.95,1.83,0,0,.26.17.28.28.03.12.09.35.25.28.16-.07.3.17.3.17l.19-.02v.19s-.16-.12-.35-.13c-.19-.02-.27.05-.27.05l-.18-.31s.05-.15-.13-.27Zm-.29,16.26c-.01-.42,0-1.22.09-1.32.09-.11.14.15.17.84.03.69-.17,2.61-.17,2.61,0,0,0,.03-.02.04h-.08s-.03,0-.05-.02c-.14-.09.08-1.74.07-2.16Zm.17-9.25c-.57-.57-.64-1.18-.64-1.18l.54.41c.18.2.37.22.37.22,0,0,.01.27.19.55.17.28.11.57-.46,0Zm-1.38,7.14c-.02-.28-.1-.53-.17-.74.05-.07.12-.19.17-.4,0-.04.01-.07.01-.1,0-.15-.09-.28-.25-.41,0-.02.02-.04.02-.04.06-.15.12-.3.13-.46,0-.01,0-.02,0-.03,0-.04-.02-.09-.04-.13,0-.03.01-.1.01-.1h0s-.05-.38-.07-.45c.03-.03.14-.11.51-.08.24.02.31.08.32.11,0,.01.01.03.01.04,0,.03-.01.05-.01.05v.02s0,.02,0,.02c0,0-.25,2.33-.26,2.37,0,.02-.17.44-.35.86-.02-.03-.03-.06-.05-.08,0-.05.01-.1.01-.17,0-.08,0-.17-.01-.28Zm-5.75-18.69l.12.03s.09-.24.3-.33c.21-.09.35.02.35.02.14.06.34.1.34.1,0,0-.16.17-.14.25.02.08.17.11.23.03.05-.07.09-.2.09-.2l.04.2-.44.55-.63-.02s-.09-.18-.2-.31c-.12-.14-.05-.33-.05-.33Zm-.29-.25c-.38-.05-.41-.28-.38-.35.03-.08.43.03.43.03.32.07.49.13.49.13,0,0-.16.25-.54.2Zm2.96-2.63l-.35-.05-.04.2-.09-.06.06-.17-.18-.06c-.04-.09.08-.33.19-.53.2-.08.43-.18.67-.31.83-.25,1.61-.58,1.77-.88.09-.16.16-.3.21-.42l-.07.26c-.14.47-.42.93-.61,1.2-.34.02-.77.14-1.12.23-.52.15-.71.41-.71.41l.33.04.13.21-.08.13-.2-.09.13-.02-.04-.1Zm8.1-3.05l.05-.04.05-.04.25-.19.06-.04.05-.04.08-.06s.04.03.04.13c0,.02,0,.05,0,.07,0,.02,0,.04-.01.07-.01.09-.05.2-.12.34,0,.02-.02.04-.03.06,0,.02-.01.04-.02.06,0,0,0,0,0,0-.04.08-.09.16-.14.25-.01.02-.03.04-.04.07-.01.02-.03.04-.04.07-.29.48-.62.92-.62.92,0,0-.16-.53-.75-.65-.58-.11-1.25-.11-1.74.23-.01,0-.02.01-.03.02-.49.36-1.29.8-1.29.8,0,0,.01-.03.02-.08.01-.05.02-.1,0-.18,0-.03-.02-.06-.03-.1,0,0,0-.01,0-.02-.09-.19-.34-.4-.41-.8-.08-.4-.28-1.47-.28-1.47,0,0,.12.23.26.48.03.05.06.1.08.15.07.11.13.23.18.31.05.08.08.14.1.17.01.02.03.03.04.05.08.1.21.19.33.27.02.01.04.02.06.03.02.01.03.02.05.03,0,0,0,0,0,0,.17.09.29.33.37.29.1-.06.15-.15.15-.15,0,0,.03-.03.08-.08.09-.08.22-.19.21-.17.06-.24.34-.5.5-.55.88-.26,1.38.68,1.38.68l.3-.23.07-.06.08-.06.73-.55Zm-.06-.2c-.12-.08-.23-.13-.33-.15,0,0-.01,0-.02,0-.02,0-.04,0-.06,0-.02,0-.05,0-.07-.01-.47-.06-1.45-.1-1.91.23-.26.19-.5.26-.59.25.02-.02.05-.06.13-.11.42-.3,1.3-.69,1.74-.63.27.04.52.09.73.13.03,0,.05.01.07.02.02,0,.05.01.07.02.17.04.32.07.42.11-.06.05-.13.1-.19.15Zm1.08.61s0,.04,0,.07c0,.02,0,.04,0,.06,0,0,0,0,0,0,0,.06-.01.12-.01.17,0,0,0,0,0,0,0,0,0,0-.01-.01-.01-.01-.02-.02-.02-.02-.03-.03-.06-.06-.09-.09,0,0-.01,0-.02-.01-.01-.02-.03-.04-.05-.05,0,0,0,0-.01,0,0,0,0,0-.01-.01,0,0-.02-.02-.03-.03,0,0,0-.01-.02-.02-.01-.01-.03-.03-.04-.04-.04-.04-.07-.07-.11-.11.05-.13.09-.25.11-.37.07.06.14.12.2.19,0,0,.02.02.02.03.01.02.03.03.04.05.02.01.03.03.04.04.01.01.02.03.03.04,0,.02,0,.06-.01.11Zm.06.59v-.13s.03-.15.03-.15c.41.03,1.25.1,1.51.23.33.17.3.73.3.73,0,0-.6-.14-.8-.15-.2-.01-.66-.02-.66-.02l-.6-.39-.04-.02.02-.18.02-.13.22.22Zm-4.98,4.05s.15.08.18.16c.04.08.03.1.03.1h-.3s.06-.04.08-.09c.03-.06.01-.17.01-.17Zm-.22.2s-.09-.07-.07-.12c.03-.06.22-.07.22-.07l-.15.19Zm.13.23c.2.06.36-.05.36-.05,0,0,.06.31.1.39.04.08.15-.07.15-.07v.17s.2.65.2.65l-.19-.24-.13-.26s-.13.09-.21.06c-.07-.03-.06-.23-.06-.23l.04-.12s-.3-.05-.5-.08c-.2-.04-.25-.45-.25-.45l.11-.04s.19.22.38.28Zm.73,4.58l-.09.15s-.23-.4-.04-.56c.05-.04.09-.08.12-.11.05-.04.09-.04.16.02.01,0,.02.01.03.02.1.09.16.2.16.2l-.08.05s-.11-.26-.27-.15c-.16.12,0,.38,0,.38Zm-.34-.92c-.08.07-.25.29-.25.29,0,0-.22-.78-.54-.99-.33-.21-.82-.78-.72-1.18.1-.41.4-.28.57,0,.17.28.71.73.87,1.08.17.35.33.78.33.78,0,0-.18-.05-.26.02Zm.52.07s-.13-.8-.79-1.79c-.65-1-1.03-.98-1.01-1.32.02-.34.11-.49.12-.15.02.34.26.59.59.84.32.24.59.87.89,1.46.3.59.39,1.09.39,1.09l-.19-.13Zm-1.4-6.73s0-.02,0-.06c0-.04.01-.1.08-.15.03-.02.07-.04.13-.05.27-.05,1.15-.57,1.26-.71.04-.04.13-.11.24-.17.25-.13.58-.27.58-.27,1.13-.07,1.24.2,1.66.92,0,0-.42-.64-1.07-.65-.33,0-.63.06-.95.18-.3.12-.6.29-.96.53-.72.48-.97.43-.97.43Zm.49-4.59c.15.14.49.47.49.76,0,.01,0,.02,0,.02,0,.13-.17,1.02-.43,1.93-.04-.02-.07-.04-.11-.08l.02-.04.1-.2s.18-.65.28-1.12c.02-.08.03-.16.04-.23.07-.45-.12-.5-.12-.5-.11-.08-.22.37-.18.48.03.11.05.42-.05.75-.06.2-.13.44-.18.6,0,.03-.02.05-.02.07-.04-.08-.09-.18-.15-.31,0-.02,0-.03.01-.04.04-.13.09-.3.05-.37-.07-.12.24-.28.24-.28l-.08-.57s-.23.17-.25.47c-.1-.11-.31-.1-.35.09,0,.01,0,.02,0,.04v.02c-.23-.32-.46-.55-.46-.55,0,0,.04.91.13,1.4.03.19.03.33.03.44h0s-.07.49-.16.71c-.08.2-.36.51-.41.57,0,0,0,0,0,0l-.06.49s-.02,0-.04-.01c-.02,0-.04,0-.06-.02-.06-.02-.15-.04-.26-.09-.18.26-.3.4-.39.47-.02.02-.04.03-.05.04-.02.02-.04.02-.06.03-.06,0-.07-.05-.07-.09v-.02s0-.02.03-.04c0-.02.02-.04.03-.06.06-.1.15-.25.24-.4-.03,0-.07,0-.1,0,.19-.29.43-.71.57-1.16,0,0,.06-.21.11-.39.02-.08.04-.15.05-.19,0-.02.01-.03.01-.03.01-.06.03-.11.04-.16.05-.19.09-.29.17-.33l.04-.02v-.05s-.01-.02-.01-.03c0-.04,0-.1,0-.15,0-.09.02-.2.02-.31,0-.17-.03-.36-.13-.49-.01-.02-.03-.03-.04-.05-.1-.1-.3-.2-.59-.33-.14-.07-.29-.14-.45-.22-.15-.05-.41-.15-.61-.29-.26-.18-.57-.4-.68-.47-.02,0-.04-.02-.04-.02,0-.03.03-.06.06-.1,0-.01,0-.02,0-.04.22-.16.59-.46.77-.64.17-.18.45-.64.61-.92.02-.04.04-.07.05-.1.21.19.8.7,1.34,1.18.51.45.99.88,1.08.96Zm-.27-.48l.76-.1-.62.31-.05.03-.05-.12-.05-.12Zm-2.28-1.68s-.01.02-.02.03c-.04.08-.09.17-.15.27-.15.25-.33.53-.45.65-.1.1-.26.25-.43.38-.09.07-.18.14-.26.2-.04.03-.08.06-.12.09h0s-.04.03-.05.05c-.04-.07-.09-.17-.13-.25.03,0,.07-.02.12-.05.16-.08.38-.25.61-.64,0,0,0,0,.01-.01.2-.35.34-.6.44-.78.04-.08.07-.15.1-.2,0,0,0,0,0,0,0,0,0-.02.01-.02,0-.01,0-.02.01-.03,0-.03.02-.06.02-.08.04.02.11.08.18.15.04.04.09.09.14.14,0,0,.02.02.03.03-.02.03-.04.07-.06.11Zm-.29,6.83v.15s-.86.35-.86.35c0,0-.15-.09-.12-.18.03-.11.23-.09.23-.09l.21-.09c.39-.1.54-.14.54-.14Zm-.76.74c.31-.16.48-.3.6-.29.13,0,.17-.16.41-.12.05,0,.09.02.11.03.05.02.06.04.06.07,0,.04-.07.09-.16.13-.19.09-.24.19-.24.19,0,0-.04.33-.22.34-.18.02-.24.06-.65.23-.21.09-.06-.15.12-.27.19-.12.12-.3-.23-.02-.35.28,0-.19.2-.29Zm-.13,1.53c.18-.11.69-.05.69-.05v-.07c.08.03-.01.28-.1.42-.08.14-.08.1-.2-.01-.11-.11-.23.06-.45.02-.23-.04-.11-.19.07-.3Zm-.19,1.02c.17-.18.31-.27.4-.3.07-.03.11-.04.14-.04.01,0,.02,0,.02,0,0,0-.03.04-.07.11,0,.02-.02.04-.03.06-.04.08-.1.17-.17.28-.1.15-.22.32-.33.46-.28.36-.65.68-.65.68l-1.76,2.99s.18-.44-.1-.69l1.11-2.2.2-.4s.19-.11.43-.27c.18-.12.39-.28.57-.44,0-.01.02-.02.03-.03.04-.04.08-.08.12-.13.02-.03.05-.06.07-.08Zm-.51,1.57c.52-.54.87-1.11,1.07-1.5.07-.15.13-.27.16-.36l-.16.03v-.02s.02-.01.02-.01l.06-.13.06-.14h0s.03-.03.03-.03l.16-.09.07-.12.57-1.1.24-.66.02-.06.02-.07.09-.25.13.12.05.05s0,.01,0,.03c0,.04-.02.13-.04.21,0,.02-.01.05-.02.07,0,.03-.02.05-.03.07,0,.02-.02.03-.03.05-.02.03-.04.04-.06.04,0,0-.01,0-.02,0-.13.11-.53.93-.66,1.21-.03.06-.05.09-.05.09l.28-.3.23-.25.47-.51.08-.43v-.07s.03-.08.03-.08v-.05s.02,0,.02-.01v-.47c.05-.06.13-.13.22-.23.28-.29.15-.48.15-.48,0,0,.1-.34.22-.52.07-.1.15-.22.19-.32.31.36.36.72.36.72.01.11,0,.22-.03.34-.07.15-.15.27-.23.36.03,0,.04,0,.02.05,0,.02-.02.04-.04.06-.02.04-.05.09-.09.16-.03.06-.07.13-.11.2-.3.53-.76,1.33-.76,1.33l-.06.17-.77.89-.15.03c-.28.34-.53.69-.63.94-.27.66-3.29,4.36-3.29,4.36,1.43-2.1,2.06-2.93,2.2-3.34Zm2.11-1.56c-.13.26-.66.75-.66.75-.13-.28.25-.37.46-.73.22-.37.33-.29.19-.03Zm-1.47,2.17s.26.55.53,1.06c.27.51,1.96,1.77,1.96,1.77,0,0-1.8-.16-2.34-.24-.52-.07-1.34-.89-1.36-1.16-.02-.27,1.2-1.44,1.2-1.44Zm7.96-.08s0-.05,0-.07c0-.13-.05-.25-.11-.36l.15-.53c.03.06.06.12.09.18l-.13.78Zm.24-.61s.03.03.04.03c.11.05.3-.02.3-.02l.21.36c-.08.34-.23.59-.4.78-.15.13-.32.18-.46.2.11-.38.27-.97.31-1.35Zm-.5-.02s0-.01-.01-.01c.03-.14.08-.4.14-.71.02.05.05.11.07.18l-.2.54Zm.14,1.05s.03,0,.05,0c0,0,0,0,.01,0l-.05.33h-.08l.07-.33Zm.55.22l.28.28s-.46.62-.62.72c-.12.08-.3.15-.38.18-.03.01-.05.01-.05.01l.04-.56s.01-.01.04-.03c.11-.08.45-.34.69-.61Zm.15-.1s.21-.17.27-.62l.39.4-.33.4-.33-.18Zm1.13-.66s.4-.05.7-.25c.3-.21.84-.65.84-.65,0,0,.11.08-.35.48-.46.38-1.01.58-1.3.67-.29.08-.47-.27-.65-.56-.29-.49-.12-.52.1-.92.22-.41.37-.17.38.49.01.67.09.66.23.51.15-.15.29-.08.16.02-.14.1-.11.2-.11.2Zm2.35-.9c.16,0,.13.31.12.43,0,.11-.15.23-.37.09,0,0-.16-.03-.23.02-.08.06-.25.1-.25.1,0,0,.2-.12.24-.23.04-.09.05-.09.09-.05-.09-.17-.06-.37.39-.35Zm-.9.74c.07.12.52-.03.52-.03l-1.68,1.06-.3-.24s-.05-.05-.05-.05l-.11-.09s.44-.2.74-.28c.31-.09,1.01-.89,1.01-.89l.17.04s-.36.35-.29.47Zm-1.85.81c.09.08.66.61.66.61.16.15.6.78.81,1.1-.28-.12-.82-.36-1.07-.57-.33-.26-.37-.37-.37-.37l-.02-.04h-.04s-.36-.03-.52-.04c.11-.14.48-.6.55-.68Zm1.02.63l1.13-1.05.25.39s.13.34.16.69c.03.35.44.99.44.99,0,0-.09.23-.15.37-.03.09-.06.39-.09.62-.34-.33-.79-.75-1-.9-.17-.39-.47-.79-.75-1.11Zm1.69-1.06c-.06-.23-.23-.4-.23-.4,0,0,.18.09.29.06.12-.03.16-.14.16-.14l.08.61.33,1.27-.14.41s-.02-.18-.16-.39c-.14-.2-.27-1.19-.33-1.42Zm.65-.68c-.44-.33-1.29-1.64-1.29-1.64l.19-.02s.56.68,1.02,1.24c.42.52.98.85,1.38,1.05.03.02.06.03.09.04.41.18,1.14.08,1.52.06.38-.01.06.23.06.23,0,0-.76.03-1.25-.04-.11-.01-.24-.05-.38-.11-.46-.18-1.02-.55-1.35-.81Zm-.99-2.97c-.24-.19-.21-.47-.21-.47l.43-.06.22.47-.23.27s.02-.01-.21-.2Zm.49.03l.08.11v.5s0,0-.1-.08c-.09-.08-.17-.22-.17-.22l.19-.31Zm-.3-.96c-.05-.15-.26-.26-.43-.33-.15-.05-.26-.09-.26-.09,0,0,.12.03.26.09.15.05.33.12.5.18.19.13.36.28.53.44l.28.24c-.1.06-.2.2-.27.38l-.07.08s-.43-.72-.52-.99Zm1.15,2.89c.11.11.21.28.21.28,0,0-.15.08-.34-.13-.03-.03-.06-.06-.09-.1-.17-.25-.23-.62-.25-.79,0-.06,0-.1,0-.1,0,0,.37.74.47.84Zm1.79-.34c.11-.15.35-.13.09.19-.25.33-.95.46-.95.46,0,0-.24.06-.63.04.33-.09.66-.16.88-.28.37-.21.47-.24.6-.42Zm-.15-1.9v.03s.04.06.04.06l.09.22.06.03.16.06s.31.55.4,1.32c.1.77.43,2.19.43,2.19,0,0-.07-.16-.16-.37-.15-.35-.34-.82-.33-.92,0-.09-.04-.46-.11-.78-.03-.13-.06-.26-.09-.36-.02-.05-.04-.09-.05-.12-.11-.23-.33-1-.41-1.26,0-.03-.01-.05-.01-.06,0-.02-.01-.03-.01-.03Zm1.01,4.46c.16-.03.17-.17.17-.17,0,0,.08.94.18,1.26.09.31.25.93.35,1.08.11.16-.04.6-.04.6l-.11-.57-.4-1.36s-.12-.49-.27-.58c-.14-.09-.25-.28-.25-.28,0,0,.22.05.38.02Zm-3.95-9.19c.06.14.11.27.18.41,0,.01,0,.02,0,.02.04.14.1.29.16.43.32.72.9,1.48,1.39,2.06,0,.02,0,.06,0,.09.02.16.18.36.18.36l-.05.12c-.58-.07-1.4-.21-1.83-.3l-2.93-.63s0,.04,0,.07c0,.02,0,.04,0,.07.59.13,2.9.62,2.9.62.4.09,1.21.24,1.81.31.22.03.41.04.54.04,0,0,.02,0,.04,0,.02,0,.05,0,.08,0,.03,0,.06,0,.08,0,.06,0,.12-.01.18-.01.08,0,.13,0,.14,0h0c.25-.02.67-.05.71,0,.05.11.05.45-.33.83-.02.01-.03.03-.05.04-.07.06-.15.13-.24.19-.71.48-1.06.47-1.71-.04l-.09-.07-.13-.11-.21-.17s-.09-.08-.13-.12c-.41-.37-.81-.67-1.67-.78,0,0-1.5-.21-1.94-.27,0,.02,0,.04,0,.06,0,.02,0,.04-.01.06-.01.05-.02.11-.03.17l.38.2s.74.96,1.02,1.21c.25.22.84.87.99,1.05.42,0,1,.01,1.29-.13.01.08.03.16.05.25-.35.07-1.06.19-1.56.22-.19,0-.51,0-.86,0l-.02.09s-.4.36-.74.4c-.25.04-.43.15-.5.2-.16.49-.31.86-.38.85-.06-.01-.12-.07-.17-.17-.02-.05-.04-.1-.06-.16-.08-.27-.09-.7.06-1.28-.06,0-.12,0-.16,0,0,0,0,0,0-.01.04,0,.09,0,.16-.01.06-.22.15-.46.26-.72.18-.41.22-.75.22-.95,0-.21.04-.63.04-.63,0,0,.55.53.6.72.02.09-.14.79-.33,1.52.7-.06,1.52-.12,1.72-.15.05,0,.13-.01.21-.01-.17-.14-.51-.44-.69-.7-.2-.3-1.21-1.35-1.55-1.71-.11.43-.27.87-.35,1.08,0,0,0,0,0,0,.07.02.04.04-.03.05h0s0,0,0,0c-.03,0-.06.01-.08.02h0c-.07.01-.2.12-.2.12,0,0,0,0,.05-.07.02-.03.07-.05.12-.07.03-.01.05-.02.07-.03h0s0-.04-.03-.09c-.03.01-.08.03-.12.05-.11.06-.22.16-.21.42,0,0-.13.11.02.05.11-.05.21-.04.25-.05.1-.02.26.14.14.25-.1.09-.22.5-.33.91h0c-.12.46-.21.92-.21.92l-.02.1-.17.73s-.04-.03-.05-.04c-.26-.21-.62-.32-.89-.33-.12,0-.24.02-.36.05l-.16-.28s-.15-.09-.22-.15c-.07-.05,0-.3,0-.3,0,0-.25-.09-.21-.29.04-.2-.17.22-.17.22l-.3-.45s-.15.02-.25.01c-.1,0-.21-.27-.21-.27h-.1s-.01-.26-.01-.26l-.13.02s-.09.2-.19.19c-.1-.01-.09-.21-.09-.21h-.1s.06-.46-.25-.5c-.3-.04-.31-.22-.18-.21.13,0,.49.28.49.28,0,0,.07-.02-.14-.26-.21-.24-.31-.27-.31-.27l.12-.22s.55-.04.8-.28c.24-.23,0-.53-.09-.59-.1-.05-.12.22-.12.22,0,0-.03-.23-.27-.17-.23.06-.16-.24-.05-.28.1-.04.33-.13.33-.13,0,0,.09-.15.1-.27.01-.13-.39.05-.47.23-.09.17-.28.91-.28.91v.23s-.26.33-.26.33l-.13.3s-.1-.33-.01-.53c.09-.2.26-.44.27-.69.02-.25.04-.58.04-.58,0,0,1-.61,1.27-.8.12-.09.25-.16.35-.19.12-.03.19-.01.19.12,0,0,0,.02,0,.03,0,.24.28.4.4.43.03,0,.05-.01.09-.04.13-.12.33-.47.55-.46.28.02.65.1.89.67.24.57.22.65.31.79.03.06.09.11.14.16-.12-.18-.15-.47-.25-.71-.1-.22-.37-.73-.37-.73,0,0,.38-.49.84-1.24,0,0,0,0,0,0,.02-.02.03-.04.04-.07.01-.02.03-.05.04-.07.01-.03.02-.06.04-.09.02.02.05.05.07.07,0,0,0,0,0,.01.02.02.03.03.05.04h0s.03.03.04.04l-.02.03v.02s-.04.05-.04.05l-.05.09-.05.1-.45.85.56.04h.13s.02.01.02.01c0,0,.08.02.21.04.55.08,2.03.32,2.19.33.21.01.77-.15.77-.15v-.15s-.64-.15-.64-.15c0,0-.1-.82-.24-.98-.14-.16-.6-.14-.6-.14l-1.36-.05v-.05s.03-.01.05-.02c.67-.29,1.81-1.58,2.37-2.48.04.07.08.16.09.24.02.16-.08.2.28,1.14Zm-1.32-4.87c.15.29,1.13,2.25,1.15,2.75h0c0,.09-.04.22-.12.38-.01.03-.03.05-.04.08-.02.02-.03.05-.05.08,0,0,0,0,0,.02-.49.85-1.69,2.23-2.37,2.55v-.1s0-.02,0-.02c-.02-.02-.04-.05-.06-.08-.01-.02-.03-.03-.04-.05-.01-.01-.03-.03-.04-.04-.04-.04-.07-.08-.11-.11-.06-.05-.12-.1-.18-.15.05-.37,0-.63,0-.63,0,0-.22.18-.47.37-.1-.03-.26-.08-.45-.12-.02,0-.05-.01-.07-.02-.02,0-.05,0-.07-.02-.23-.05-.5-.1-.8-.15-.48-.07-1.39.33-1.83.65-.14.1-.2.18-.2.24,0,.04.02.07.06.08.13.06.46-.06.74-.26.4-.29,1.27-.27,1.74-.22.02,0,.05,0,.07,0,.03,0,.05,0,.07,0,.02,0,.04,0,.06.01.08.01.17.05.27.12-.07.06-.13.11-.17.14-.16.15-.4.36-.6.5-.03.02-.05.04-.08.06-.03.02-.05.04-.08.05,0,0,0,0-.02.01,0,0,0-.01-.01-.02-.01-.03-.03-.05-.05-.07-.01-.01-.02-.03-.03-.03-.01-.02-.03-.03-.04-.04-.32-.3-.92-.42-1.27-.38-.41.05-.62.54-.62.54l-.24.19h0s.17-.91.55-1.41c.23-.31.08-.64-.08-1.07-.16-.43.17-1.39.17-1.39,0,0,.52.72.68,1.15.16.43.39.52.51.45.51-.23.89-.24,1.33-.1.35.11.63-.02,1.01-.36.1-.09.2-.19.32-.3.09-.1.18-.17.27-.24.08-.07.17-.12.24-.17.13-.14.21-.22.21-.23l.03-.03-.11-.21-.46-.47-.02-.02s-.02-.03-.03-.04c-.09-.13-.24-.4-.27-.54,0,0,0,0,0,0h0s.02-.09.05-.14c.03-.04.06-.08.11-.13.06-.06.13-.13.2-.2l.17.16.12.11.11.11.03.03s0-.02.01-.04c.01-.04.04-.1.07-.17.02-.07.06-.14.09-.21.04-.08.09-.15.12-.17.02-.01.04-.01.07-.01.04,0,.09.01.15.03.04.01.09.03.12.05.08.04.14.07.14.07,0,0-.02-.18-.02-.3,0-.08.08-.15.13-.19.02-.02.04-.03.04-.03,0,0-.05-.03-.11-.11,0,0-.01-.02-.02-.03-.02-.03-.05-.07-.07-.11,0,0,.01,0,.01,0,.01,0,.04-.01.05-.02,0,0,0,0,0,0Zm-4.48-6.07s.02.04.03.06c.01.02.02.04.03.06,0,.02.02.04.03.06,0,.02.01.04.02.06,0,.03.02.05.03.07,0,.02,0,.04.01.06.01.04.03.08.04.13,0,.01,0,.03,0,.04,0,.03.01.07.01.1,0,.02,0,.04,0,.06,0,.03,0,.06,0,.1,0,.02,0,.04,0,.06,0,.03,0,.07,0,.11,0,.02,0,.03,0,.05,0,.05,0,.11-.01.17,0,.04.01.07.02.1,0,0,0,.02.01.02h0s0,0,0,0c0,0-.01-.02-.02-.03-.07-.11-.06-.54-.06-.54,0,0,0-.33-.18-.78,0,.01.01.02.02.04Zm-4.83,2.05c-.06.07-.1.15-.13.22,0,0,0,.02-.01.03,0,0,0,0,0,.01,0,0,0,0,0,0h0c-.04.08-.07.14-.1.14-.08,0-.12-.44.09-.55.01,0,.03-.02.05-.02.01,0,.02-.01.03-.01,0,0,0,0,0,0,.14-.04.33-.07.5-.25.03-.02.08-.04.14-.06.21-.07.57-.18.92-.21.55-.04,1.51-.07,2.12-.01.61.07.92-.06.92-.06,0,0,.12-1.36-.16-1.35-.28,0-.35.31-.28.34.07.03.08-.17.24-.14.15.04.13,1-.04.99-.18-.01-.26.16-.58.01-.32-.15-2.01-.14-2.4.09,0,0-.33-.07.16-.16.49-.09,1.91-.15,2-.15.11,0,.12-.19-.67-.17-.78.02-1.35.19-1.5.18-.15-.01-.28-.3-.2-.47.09-.17.19-.57.38-.76.1-.1.15-.2.14-.25-.02-.03-.08-.03-.2.07-.19.15-.37.43-.49.7,0,0,0,0,0,.01.06-.16.13-.31.23-.47h0s.05-.07.08-.11h0c.06-.07.12-.13.19-.2,0,0,.02-.02.03-.02.03-.02.06-.05.08-.07,0,0,.02-.02.03-.03.04-.02.08-.05.11-.07,0,0,0,0,.01,0,.04-.03.08-.05.14-.07,0,0,.03-.01.04-.02.03-.02.07-.03.11-.05.01,0,.03-.01.05-.02.04-.01.08-.03.12-.04.02,0,.03-.01.05-.02.06-.02.12-.03.18-.04.02,0,.03,0,.04,0,.05-.01.1-.02.16-.03.02,0,.04,0,.07,0,.05,0,.1,0,.15-.01.02,0,.05,0,.07,0,.08,0,.15,0,.23,0,.03,0,.06,0,.09,0h.02s.06,0,.09.01h0c.21.03.46.1.69.23h0c.04.05.11.13.18.21.18.21.42.5.51.65.15.26.08.64.04.93-.04.26-.16.31,0,.36.03,0,.06.02.11.03.06,0,.1.02.14.02.12.02.14-.01.11-.07.02.04.04.08.07.11.04.05.07.09.07.09,0,0-.15,0-.36.1-.21.09-.47.2-.75.18-.16-.01-.66-.12-1.16-.18-.31-.04-.63-.07-.85-.05-.03,0-.06,0-.09.01-.54.09-1.87.3-2.01.47Zm4.68.64c-.01.06-.04.12-.06.21-.06.2-.07.78.03,1.06,0,0,0,0,0,.01.1.27.15.3.15.3l-.65,1.35s-.04-.04-.1-.1c-.14-.18-.4-.53-.35-.79.07-.35.47-.7.54-.9.07-.2.05-.73.16-.88.11-.14.22-.31.22-.31,0,0-.07-.16,0-.38.06-.22.28-.14.28-.14l-.04.1-.02.08s-.17-.12-.16.11c0,.13,0,.2-.02.27Zm-2.47-.31v-.02c0-.11.14-.31.16-.34h.03c-.04.16-.05.38-.05.44.02,0,.06-.01.13,0,.06,0,.13.08.15.13,0,.01,0,.02,0,.03,0,.02-.01.03-.02.03-.02.02-.08.01-.16-.03-.06-.03-.15.06-.16.07,0,0-.09.04-.16.01l-.06-.06s0-.03,0-.04c0-.05.04-.08.08-.11.04-.03.07-.06.07-.09,0,0,0,0,0,0Zm.53,1.43c.23-.03.53,0,.54-.15,0-.15-.07-.41-.33-.45-.25-.04-.75-.03-.75-.03-.14-.11.48-.14.48-.14l-.21-.14s.17.03.25.02c.08-.02.11-.17.11-.17,0,0,.24.19.39.31.14.11.23.47.25.73.04.25-.49.17-.77.2-.28.03-.53.01-.52-.08,0-.1.33-.05.56-.09Zm-.53-.39s.36-.1.66-.06c.3.05-.16.14-.42.15-.25,0-.24-.09-.24-.09Zm.08.99c.17.01.38-.05.49-.17.11-.12.46-.04.67-.18.21-.14.16-.83.21-.85-.13.02-.13-.36-.36-.37-.23-.01-.39-.3-.13-.28.25.02.66-.41.66-.41l.26-.08s.05.46-.12.63c-.16.16-.18.52-.31.53.05-.02.09.16.09.16,0,0,.07.16.21-.06.15-.21.26-.87.33-.86.08,0,.01.2,0,.33,0,.13-.35.71-.53,1.08-.18.37-.38.71-.86.83-.49.12-.73-.12-.73-.12-.07-.08-.07-.15.11-.14Zm-1.86.99c.18-.32.37-.8.53-1.19l.23.07s.1-.27.18-.34c.01-.01.03-.01.04,0,.01.18.03.5.03.5h0c-.01.08-.01.13.03.17.01,0,.02.02.03.04l.1.33s.01.09,0,.13c0,.04.03.11.08.16l.02.07.5.35c.07.08.15.16.2.21.08.07.18.09.24.09l.5.35c.11.09.22.17.31.25.02,0,.04,0,.05,0,.12.02.21.03.25.04.02,0,.04,0,.04,0,0,0,.03-.03.07-.09l.49-1.02.88-1.62s-.22.09-.3.12c-.02-.04-.04-.13-.04-.34,0-.09,0-.19.02-.33.03-.22.03-.45.03-.62,0-.1,0-.18,0-.24.12,0,.37.01.37.01l.03-.11c.03-.13.12-.33.2-.37.01,0,.02,0,.02,0h0c.84.18,1.78.45,1.9.59.23.26,1.16,1.55,1.51,3.12,0,0,0,0,.01,0,.06,0,.11,0,.13.03.08.09.13.14.15.18-.04,0-.08.01-.11.04,0,0,0,0-.01,0-.01,0-.03,0-.04.02-.03,0-.06.01-.08.03-.13.06-.3.22-.48.33-.28.17-.6.45-.6.45h0c-.11.1-.2.2-.28.29-.05.06-.08.12-.1.18-.02.03-.03.06-.03.09,0,.01,0,.02,0,.03,0,.02,0,.03,0,.04.06.23.3.59.31.61,0,0,.03.03.06.06l-.11.25-1.27.77s-1.08.28-1.43.21c-.35-.07-.07-1.33-1.74-.87-.51.15-.93-.02-1.13-.03-.09,0-.26,0-.44.01-.58-.51-1.24-1.09-1.45-1.27l.02-.04-.03-.03s-.05-.05-.07-.07c-.07-.07-.12-.12-.17-.17-.21-.18-.26-.16-.29-.16-.01,0-.03.02-.04.03,0-.03,0-.05-.01-.08-.02-.05-.04-.1-.07-.14-.01-.02-.02-.03-.04-.04-.05-.04-.09-.09-.13-.14.32-.26.7-.61.89-.96Zm-2.19-.14h.03s.49.18.49.18v.27h0s.12.06.21.13c.05.04.1.08.13.12.02.04.08.11.14.18.01.02.03.04.05.06.03.03.06.07.09.1.03.03.06.06.09.09,0,0,0,0,0,0,.03.02.06.04.08.05.03.01.06.06.08.13,0,.02.01.05.02.08,0,.04.01.09.02.14v.02s0,.07,0,.11h0s0,.03,0,.04c0,.08-.03.16-.06.23-.04.07-.08.16-.13.24-.24.37-.7.93-.7.93l-.17-.32s-.65,0-1.18-.57c-.53-.57-.53-1.21-.53-1.21l-.28.78s-.47-.22-.52-.68c-.05-.46.2-.7.2-.7,0,0,.13-.18.24-.17.11,0,.36.17.36.17l.29-.36.96-.2.07.15Zm-4.18-1.99s.03-.03.03-.03c0,0,.12.18.11.29,0,0,0,.03,0,.07,0,.01-.01.03-.02.05,0,0,0,0,0,.01,0,.01-.01.02-.02.03-.06.09-.09,0-.09,0,0,0,0,0,0-.02.02-.05.06-.17.01-.28-.03-.06-.03-.09-.02-.12Zm-.36-.23c.05-.22-.07-.55-.18-.8,0-.02-.02-.04-.02-.06-.07-.16-.14-.27-.14-.27,0,0,.06.08.13.2.02.03.04.06.05.09.12.21.26.5.26.74.01.42-.39.96-.39.96h-.32s.53-.5.61-.87Zm-.23,1.94l.12-.1.02.3.06.2.16-.11-.17.3-.21.32.02-.91Zm-.39,1c-.17.2-.4.28-.4.28,0,0,.15-.2.31-.34.16-.14.32-1.41.32-1.41l.16-.18s-.23,1.45-.39,1.64Zm-1.08-4.62c.58.34,1.03,1.09,1.03,1.09l-.12.07s-.55-.91-1.03-1.06c-.48-.14-.98-.1-.98-.1l-.03-.16s.55-.19,1.13.15Zm.08,1.7s0,.02,0,.02c0,0-.02,0-.02,0,0,0-.33-.29-.5-.37-.07-.03-.12-.04-.16-.02-.07.04-.08.17-.09.18l-.09.19s0,.01-.02.01c0,0-.02,0-.02-.02l-.18-.65s0-.01,0-.02c0,0,.01,0,.02,0,.02,0,.58.04.83.29.25.24.24.4.24.4Zm-2.54-1.26l.09-.26s.02,0,.06-.01c.04-.01.11-.04.22-.09.2-.1.54-.19.54-.19v.15s-.21.1-.48.16c-.19.04-.32.14-.39.19-.03.03-.05.05-.05.05Zm.62.8l-.05.68s0,.02-.01.02c-.01,0-.02,0-.02-.01,0,0-.09-.34-.11-.4-.03.04-.1.12-.1.12,0,0,0,0-.01,0,0,0-.01,0-.01,0l-.14-.16s0-.02,0-.03l.29-.28s0,0,.02,0l.14.05s.01.01.01.02Zm-.59,2.8l.09-.14s.3.09.58.16c.07.02.14.03.2.04.3.06.61-.07,1.23-.3.62-.23,1.37-1.16,1.37-1.16l.34.02s-.31.24-.91.8c0,0-.01,0-.02.02-.61.56-1.51.92-1.99.89-.12,0-.21-.02-.31-.04-.4-.09-.59-.28-.59-.28Zm-4.67,5.79c.04.05.06.1.06.14,0,.03,0,.05-.02.07l-.04-.16h-.03s-.04-.03-.04-.09v-.06s.04.06.07.09ZM4.96,5.45s.04,0,.06-.01c.03,0,.06,0,.1,0h0s.07.03.09.05c.02.02.04.04.06.05-.47,1.72-3.15,11.7-3.59,13.32-.01-.02-.03-.03-.05-.05-.03-.02-.05-.03-.08-.04-.02,0-.03,0-.05-.01-.02,0-.04,0-.06,0,.43-1.65,3.01-11.39,3.52-13.31Zm-3.69,15.7l.02-.07c.06.03.12.08.18.14.06.05.09.1.1.14-.02.06-.04.11-.04.15,0,.01,0,.02-.01.03,0-.02-.02-.03-.03-.05-.02-.04-.04-.08-.06-.13h0s-.02-.03-.03-.04c-.04-.07-.09-.13-.09-.14l-.04.04v-.06Zm-.06,2.79h-.16c-.12.02-.24.03-.39-.1,0-.02-.01-.04-.02-.06l-.02-.07-.02-.06c-.01-.07,0-.13,0-.19v-.12c-.01-.05,0-.11,0-.11v-.03s0-.02,0-.02l-.04-.05-.05-.06H.47s-.02-.03-.02-.03l-.09-.1h0c-.16-.22-.21-.54-.14-.7,0,0,0,0,0,0,0,0,.04-.09.12-.17.04-.04.1-.08.18-.11.22-.09.28-.1.28-.1l.02-.12s-.26-.07-.36-.06c0,0,0,0,0,0,0-.01,0-.03,0-.03l.02-.03s.06-.04.1-.12c.02-.04.03-.07.02-.1,0-.02,0-.03,0-.04.02,0,.04-.03.04-.03.15-.08.25-.16.25-.17l.36.06-.05.04s.07.1.1.13c0,0,0,0,.01.02,0,.03.02.1.02.15,0,.01,0,.02,0,.03v.02c0,.09.04.12.13.19l.04.03c.08.06.09.09.09.09,0,.01,0,.02-.01.04-.08,0-.22.02-.28.14-.03.06-.1.11-.14.14-.03.02-.05.03-.05.04l.06.1s0,0,.02-.02c-.05.17-.11.44-.06.76.05.36.11.57.27.67.02.01.04.02.06.03-.1.09-.15.13-.27.12Zm.55-.27c-.05,0-.11-.01-.19.05-.03,0-.05-.02-.06-.03-.12-.06-.18-.21-.24-.6-.07-.44.1-.82.1-.82h0c.06-.04.14-.08.19-.09.07-.02.11-.02.13-.02-.08.04-.13.07-.14.1-.05.17,0,1.17.06,1.28.02.03.04.05.06.07.05.03.11.03.21.01-.04.06-.07.05-.11.05Zm2.66-1.85s-.17.1-.35.14c-.19.04-1.71.5-1.82.52-.05,0-.21.06-.35.11-.14.05-.26.09-.26.09l-.03-.35.27-.08c.29-.08.74-.21.95-.27.32-.09,1.1-.43,1.1-.43,0,0,.09-.21.35-.35.25-.14.68-.3,1.21-.59.05-.03.11-.05.17-.08.06-.02.11-.05.17-.07.23-.09.45-.16.61-.19-.02-.09,0-.24.07-.46.06-.2.08-.5.08-.5l.47.45-.23.59c-.06.22-.01.1-.05.23-.04.13-.14.1-.3.14-.16.04-.86.21-1.26.45-.39.24-.79.67-.79.67Zm2.74-.67s-.23.23-.31.27c-.08.05-.3.11-.39.19-.08.07-.19.01.13-.26.31-.27.49-.47.49-.47.34.08.39.08.39.08l-.31.19Zm1.16-1.68s-.14.02-.27.03c-.04,0-.08,0-.12,0-.28.01-.63,0-.83-.12-.26-.15-.43-.34-.52-.47-.02-.03-.04-.06-.05-.08-.01-.01-.02-.03-.03-.04,0-.02.05-.17.08-.31.02.05.05.1.08.15.06.11.13.22.21.34.04.06.09.11.14.17.08.07.16.14.25.17.24.11.45.15.63.15.02,0,.05,0,.07,0,.07,0,.13-.01.18-.03.02,0,.04,0,.05-.01.03,0,.05-.01.08-.02.04,0,.07-.03.1-.04-.03.05-.07.1-.08.11Zm.16-2.77s-.26.25-.38.2h0c-.12-.05-.07-.29-.06-.33v-.02s.46.12.46.12l-.02.02Zm.24.67h0c-.05-.02-.08-.05-.08-.09,0-.09.18-.19.38-.29,0,0,.03-.01.03-.02.19-.09.37-.53.37-.53,0,0,.12-.22.13-.22l.32-.21.05-.03-.02.05s-.19.49-.19.5c0,0-.19.12-.19.12,0,0-.25.79-.79.72Zm2.59-1.75c0,.06,0,.11-.02.16-.04.32-.13.29-.13.29,0,0,.28.29.03.61-.25.33-.42.09-.42.09l-.13.25-.26-.05s-.1.38-.52.41h-.04c-.45,0-.53-.07-.53-.07l.16-.18s.43,0,.62-.11c.19-.1.52-.46.61-.68.09-.22.35-.66.22-1.08-.12-.42-.21-.77-.21-.77v-.15s.01,0,.01,0c0,0,.07.04.13.1,0,0,0,0,0,0,.03.03.05.07.07.11,0,.02,0,.04,0,.06l.09.02h0s.13.02.13.02h.07s-.02.04-.05.09c-.01.01-.02.02-.03.04-.03.06-.06.13-.05.18.03.11.26.17.23.66Zm1.03-.05s-.16.18-.45-.11c-.29-.29-.16-.43-.3-.55-.14-.12-.23-.51-.23-.51,0,0,.03,0,.09,0,.25-.01,1.04-.03,1.68.2.05.02.11.04.16.06.75.32,1.67.97,1.67.97l-.97.21-.17.29s-.14-.16-.29-.17c-.15,0-.36.21-.36.21l-.46-.49v-.19s-.38.09-.38.09Zm.37,8.9s.02-.01.08,0c.02,0,.03.01.04.02.3.17.58.3.75.31.1.03.21.05.32.06l.36.22.22.12-.14.14.1.06-.43-.03s.1.1.27.14c.18.03.29.25.42.25.12,0,.19.11.57.17-.22-.03-.47.05-.17.16.32.12.66.37.66.37l-.59-.17s-.42-.26-.97-.34c-.55-.09-.24-.19-.54-.27-.3-.07-.32.26-.08.4.24.15.84.24,1.31.4.47.16.38.43.38.43l-.24-.17-.19.26-.62-.14-.19.11s-.46-.61-1.23-.92c-.32-.13-.63-.18-.93-.18-.03,0-.05,0-.07,0,.51-.79.91-1.4.91-1.41Zm-1.32,1.8h.08s.08-.01.08-.01l.53-.05c.93.11,1.62.78,1.62.78,0,0-1.26.13-1.67.06-.33-.06-.59-.19-.77-.33-.02-.01-.03-.03-.05-.04-.02-.01-.03-.03-.05-.04-.19-.17-.28-.33-.28-.33l.51-.04Zm-1.74,7.71c-.06.14-.3.77-.3.77,0,0-.46-.05-.52.16-.05.2.04.53.04.53,0,0-.07-.06-.38-.03-.09.01-.17,0-.24-.05-.08-.05-.13-.16-.13-.31,0-.14.05-.32.15-.57.32-.72.43-.8.61-.83.17-.02.06.02.06.02.36-.02.79.15.72.3Zm1.9-2.99s-.41.37-.92,1.16c-.11.18-.2.34-.28.48-.05.09-.09.17-.12.24-.09.19-.14.31-.16.39-.03-.01-.07-.03-.1-.04-.14-.06-.34-.14-.54-.19-.14-.04-.26-.06-.35-.05-.22.03-.58.19-.81.3-.09.04-.15.08-.19.09.12-.21.27-.54.27-.81,0-.01,0-.02,0-.04,0-.02,0-.04,0-.06,0-.33.16-.58.42-.97l.06-.09c.12-.19.17-.38.22-.61.08-.37.21-.88.75-1.76.29-.47.71-1.13,1.13-1.79l-.22.47-.13.28s.08-.07.3-.33c.22-.26.36-.3.9-.14.55.16.52.57.52.57,0,0-.16.14-.36.13-.2-.01-.18.07.04.16.22.09.26.19.26.19,0,0,.27-.14.41-.07.15.06.1.34-.02.3-.38.05-.07.25-.07.25l.4.03s.17.19-.2.66c-.36.48-.68.41-.68.41l-.17.54c-.15.14-.29.27-.34.32Zm1,12.37c-.02.27-.65.15-.65.15,0,0-.46.12-.25.32-.2.18-.45.5-1.29.49-.83-.02-1.06,0-1.05-.15.01-.15.33-.4.64-.53.15-.06.24-.14.33-.24.1-.12.19-.24.32-.36.12-.1.33-.31.57-.51.26-.21.55-.4.74-.39.49.03.66.96.64,1.22Zm.66.89v.06h-.11s-.53,0-.53,0l.27-.1v-.03s.12-1.14.12-1.14l-.15-1.23-.4-.82-.12-.04-.19-.06h-.03s-.12.06-.12.06c0,0-.01-.04-.04-.1-.02-.04-.05-.09-.09-.13-.01-.02-.03-.03-.04-.05,0-.01-.02-.02-.02-.04h0c-.03-.1,0-.19,0-.19,0,0,.18.13.29.25.11.12.22.13.22.13l-.21-.32s.09,0,.19.04h0s.03.01.04.02c.08.04.17.11.25.24.2.31.48.75.53,1.54,0,0,0,.01,0,.02,0,.07.01.14.01.22.04.72-.01,1.38-.01,1.38l.15.05-.02.24Zm.93-.75c-.13.22-.93.24-.93.24,0,0,.11-.49.12-.67.02-.19-.09-.89-.09-.89,0,0,.46-.04.78.25.33.28.25.85.12,1.07Zm-.33-5.9c.18-.9.47-1.33.35-1.84-.12-.5-.34-1.77,0-1.14.33.63.92,1.43.69,2.13-.24.71-.44.89-.39,1.19.06.31.19,1.2-.17,1.36,0,0-.67-.81-.49-1.7Zm.89,14.28s0,.01,0,.02c-.02.02-.04.04-.06.06.01-.17.11-1.54.13-1.94.02.05.04.1.05.15.04.13.04.24-.02.37,0,0,0,.01,0,.02-.07.15-.04.23-.02.29,0,.02.02.05.02.07.01.08.08-.05.08-.05,0,0-.08.89-.17,1.01Zm1.33,2.7s.08.1.1.15c.09.26.09.33.09.33,0,0-.08.21-.9.17-.32-.01-.55-.05-.71-.1-.19-.05-.29-.11-.33-.14,0,0,0,0,0,0,.03-.06.1-.17.2-.29.16-.2.41-.4.75-.41h0c.29,0,.63.1.8.28Zm-.33-3.35c.25.1.7.45.7.85,0,.01,0,.03,0,.04-.01.02-.05.07-.1.13-.03.04-.08.09-.13.14-.17.16-.4.33-.65.31-.2-.01-.33-.05-.44-.11.03-.04.13-.19.2-.22.08-.03.37.17.37.17,0,0-.12-.17-.12-.32h0c-.02-.16.2-.28.2-.28,0,0-.23.02-.31-.11-.08-.13.04-.24.04-.24,0,0,.56.4.47.32-.08-.08-.58-.7-.43-.67.05.01.09.01.12,0,.03,0,.05-.03.04-.05.02.02.04.03.07.04Zm-.13-.13s-.05-.04-.08-.06c-.1-.05-.22-.09-.22-.09,0,0,.13-.17.23-.31.03-.05.06-.09.08-.13-.02.14-.04.27-.04.38,0,.09,0,.15.04.21Zm-.13-2.68s.04-.02.06-.03c.02-.01.05-.02.08-.04-.04.11-.08.28-.08.48,0,.05,0,.1,0,.16.02.2.06.29.1.38.04.09.08.16.08.34,0,.04,0,.08,0,.14,0,.11-.02.22-.04.34,0-.09,0-.17-.03-.24,0-.01,0-.02,0-.03-.04-.16-.48-.11-.48-.11l.11-.2s.29-.12.3-.27c0,0,0-.01,0-.02,0-.04-.02-.08-.03-.11-.05-.08-.13-.13-.13-.13l.09-.43.02-.08s0,0,0,0c-.06,0-.53.04-.81-.04-.14-.03-.22-.16-.28-.29-.02-.04-.04-.09-.05-.13,0-.04,0-.06,0-.06,0-.12.02-.18.03-.2,0,0,.01.02.03.05,0,.01.01.03.02.04,0,.02.01.04.01.04.01.03.03.06.04.1.08.18.21.41.5.45h0c.12.01.26-.03.39-.08.03,0,.05-.02.08-.03Zm.94-4.67c-.16-.09-.31-.25-.37-.55-.01-.05-.02-.11-.02-.16-.08-1-.13-.77-.13-.77l-.1.37s-.59-.19-.84-1.05c-.25-.85-.17-1.81-.04-2.21.48-1.41.56.15.73.39.18.24.37.14.1-.34-.27-.47-.17-.95.37-.39.53.56.9.74.12-.75-.77-1.49-.44-1.92-.44-1.92,0,0-.07-.73,1.43.17,0,0,.86.78,1.09,1.78.24,1.01.4,2,.2,2.71-.2.71-.26-.66-.33-1.24-.08-.57-.27-.58-.46.01-.19.59-.21.86-.21.86,0,0-.18-1.08-.27-.93-.09.15-.41,1.54-.1,2.05.29.51.5.94.5.94,0,0-.46.23-.68-.58-.21-.81-.22-1.8-.22-1.8l-.17.3-.38-.6s.28.97.3,1.24c.02.26.48,1.21.46,1.62-.03.42.05.92.05.92,0,0-.31.07-.58-.07Zm.68,2.01c-.03.08-.12-.09-.21-.18-.02-.02-.03-.03-.05-.04h0c.04-.12.08-.28.15-.44.14-.33.36-.68.74-.73.2-.02.38,0,.5.07.02,0,.03.01.04.02,0,0,.01.01.02.02.03.02.05.06.06.09,0,.02,0,.04,0,.06v.02c0,.13-.06.25-.12.39-.02.05-.04.1-.05.14-.02.04-.03.08-.04.12,0,.03-.02.06-.02.09,0,.04-.01.08-.01.13,0,0,0,.02,0,.03h0c0,.13.05.26.09.4.01.03.02.06.03.1,0,0,0,.01.01.03.08.23.17.48.19.77,0,.11.01.2.01.27,0,.02,0,.03,0,.05-.02-.04-.04-.08-.06-.13-.05-.08-.11-.17-.19-.22-.07-.04-.15-.06-.24-.04t0,0c-.05.01-.11.04-.16.08-.18.12-.35.36-.48.56-.02.04-.04.07-.06.1,0-.34.02-1.27.02-1.27l-.03-.02s0,0-.02-.02c0-.02,0-.04.01-.07,0-.05.01-.1.03-.16.1-.99-.1-.73-.1-.73,0,0-.03.38-.07.49Zm1.53,4.03c-.07,0-.13,0-.19,0-.28,0-.43-.06-.68.02-.31.09-.74.31-.74.31,0,0-.05-.19.11-.24.16-.05.55-.27.95-.24.17.01.29.04.37.05.11.02.16.02.16-.07.01-.17,0-.23-.06-.23-.04,0-.08.04-.11.06,0,.01-.01.02-.01.02,0,0-.09-.06-.26-.07-.17-.01-.09-.07,0-.1.1-.02-.1-.19.06-.29.16-.11.17-.18,0-.15-.18.03-.51.17-.51.17,0,0,.06-.3-.08-.25-.1.04-.31.18-.41.26-.03.02-.05.03-.05.03,0,0-.2.02.08-.16,0,0,.02-.01.02-.01.32-.21.32-.25.53-.27.24-.03.5.04.64.09.07.02.11.04.11.04l.4,1.07s0,.17-.1.16c-.05,0-.03-.04-.02-.07.02-.06.04-.14-.23-.12Zm1.97,6.04c.08.2.13.34.15.44-.07-.07-.17-.14-.31-.19-.1-.04-.22-.06-.36-.07t0,0c-.23,0-.46.08-.67.19-.15.08-.27.16-.36.24-.02.02-.04.03-.06.05,0-.21-.02-.62-.12-.87-.07-.18-.12-.26-.16-.29.05-.16.19-.62.39-1.1.13-.31.19-.64.19-.95,0-.25-.04-.5-.13-.69,0,0,0-.02-.01-.02.02,0,.04,0,.06,0,0,0,0,0,0,0,.17-.05.11-.17.11-.17,0,0-.2-.01-.2-.11,0-.1.22-.24.43-.32.2-.09.45,0,.45,0l.05-.25s-.44-.08-.79.01c0,0-.02,0-.02,0,0,0,0,0-.01,0-.17.05-.28.14-.35.24-.02.02-.03.04-.04.05-.02-.05-.04-.09-.04-.13,0-.05.02-.09.06-.14.01-.02.03-.04.06-.07.02-.02.04-.03.06-.05.31-.25.68-.36.7-.36.02,0,.29-.02.29-.02.06-.01.12-.02.17-.02.04,0,.09,0,.13.02.04,0,.07.03.11.06,0,0,.02.01.03.03.02.02.04.06.05.1,0,.03.01.07.01.11,0,.09-.02.2-.05.3-.01.03-.02.06-.02.08,0,.02-.01.03-.02.05h0l-.03.13-.02.09c0,.17-.04,1.78-.05,1.85,0,.06.12,1.29.35,1.79Zm.28-3.59c-.14.2-.33.16-.45.03,0-.03,0-.06,0-.08,0,0,.01-.05.03-.1.01-.05.02-.1.02-.1.03-.09.06-.2.08-.3.02-.01.04-.03.07-.04.09-.06.23-.08.33-.09,0,.01.02.02.02.03.02.01.03.02.05.02.02,0,.04,0,.06-.02l.03.13.03.16.03.15s-.07-.08-.28.21Zm-.33-2.51s0-.08.01-.12c0-.04.06-.24.08-.46,0,.01.02.03.03.04,0,0,.02.02.03.03.01.12.02.23.02.34,0,.24-.04.46-.11.55,0,.01-.02.03-.03.04,0-.08-.01-.16-.02-.24,0-.07-.02-.13-.02-.19Zm2.57,2.89s.02.03.03.04c.1.15.24.55.25.74.01.2-.14.19-.14.19,0,0,0,0-.02,0-.04-.02-.15-.08-.31-.09-.2-.01-.3.28-.6.29-.3,0-.32-.12-.3-.4.02-.28.05-.37.05-.37,0,0-.28-.05-.43-.03-.15.02-.5-.14-.12-.11.37.02.28-.06.28-.06l.03-.15h.11s-.02-.15-.27-.12c-.25.04-.76.08-.27-.1.49-.17.77-.15.77-.15.46-.09.85.21.94.32Zm-.67-2.55l.17.24c.12.16.19.27.2.37,0,0,0,0,0,.01,0,.02,0,.06-.03.07,0,0-.01,0-.03,0-.02,0-.06-.02-.11-.05-.05-.03-.11-.08-.17-.16-.08-.09-.18-.19-.3-.25-.06-.02-.12-.04-.19-.04-.19,0-.38.12-.59.37-.28.33-.35.53-.35.65h0s0,.07.02.1c-.01.02-.02.05-.03.06,0,0,0-.01,0-.01,0-.02,0-.05-.02-.08-.01-.09-.03-.21-.03-.33,0-.06,0-.12.02-.17.02-.06.04-.12.07-.16.12-.12.19-.35.19-.61,0-.17-.03-.35-.11-.51-.04-.09-.08-.17-.13-.24-.03-.04-.06-.09-.09-.13-.03-.05-.07-.1-.11-.14-.13-.17-.25-.31-.27-.47-.01-.07-.02-.14-.02-.2,0-.15.02-.27.04-.37l.02-.12h0c0-.06-.03-.09-.05-.11-.02-.02-.03-.05-.03-.09,0-.01,0-.03,0-.04.01-.07.06-.18.18-.36l.1-.15c.11-.15.2-.29.31-.41.17-.21.37-.38.63-.48,0,0,0,0,0,0,.03,0,.05-.02.08-.03.01,0,.03,0,.04-.01.01.02.01.04.01.06,0,0,0,.01,0,.02h0s-.01.07-.03.11c0,.01-.01.03-.02.04,0,0-.02.02-.03.03,0,0-.01.01-.01.02-.02.03-.03.08-.03.16,0,.06,0,.15.02.25,0,0,0,0,0,.01.01.15.04.34.07.59v.06s.06.5.06.5l.02.21s0,.07,0,.1c0,.06.02.12.03.18.09.57.33,1.26.5,1.54Zm-1.58-5.45c.06.24.31,1.49.31,1.49l-.27.59s-.42-1.7-.33-2.22c.08-.52.22-.62.31-.59.1.04-.08.5-.02.73Zm.45-.67c.05.29.21,2.08.21,2.08,0,0-.28-.97-.39-1.64-.11-.66.12-.72.18-.44Zm.67,3.86l-.03-.25v-.08c-.03-.19-.06-.4-.08-.58h0c0-.16.02-.3.05-.42,0,0,0-.01.01-.02,0,0,0,0,0-.01,0-.02.01-.03.02-.04.05.05.12.14.19.25,0,.03-.1.66-.17,1.17Zm.34-1.29s-.03.06-.04.08h0s0,0,0,0c-.03-.18-.21-.32-.27-.36,0-.02,0-.05,0-.08,0-.01,0-.03,0-.05.04,0,.08,0,.08,0,.08,0,.15.12.2.22,0,.01.02.03.03.04l.03.05s0,.02,0,.03c0,.02,0,.04-.01.06Zm1.28-7.89c-.03.13-.06.25-.09.36-.02.07-.04.14-.06.2-.02.06-.04.13-.06.18,0,0,0,0,0,0-.05.16-.1.26-.11.3,0,.01,0,.02,0,.02l-.05.21-.18.69s-.01.09-.02.14c-.07.43-.18,1.08-.24,1.39-.02.11-.03.17-.03.17,0,0,0,.02.01.06.02.07.03.19-.04.32,0,0,0,.02-.01.03-.02.04-.03.1-.04.17-.04.25-.07.64-.26.96-.03.05-.06.11-.09.17-.15.3-.32.71-.46.94-.02.04-.04.07-.06.09-.06.08-.12.11-.16.07-.02-.02-.04-.05-.05-.1-.12-.38-.09-1.62.1-2.29.21-.75.91-2.64.75-2.64-.37,0-1.81,1.58-1.85,2.16-.04.57.08,1.06.29,1.35.21.28.06.23-.16.14-.22-.08-.66-.91-.47-1.44.18-.52,1.13-1.55,1.13-1.55l1.18-1.28s.18.2.32.44c-.09-.43-.23-.88-.37-.89-.26-.02-1.13,1.63-1.13,1.63,0,0-.08-.5-.25-.86-.17-.35-.27-.39-.27-.39l.26.05-.41-.6h.41s-.15-.48-.78-.71c-.63-.23-1.04-.41-.91-.56.12-.14.61,0,.61,0,0,0-.16-.42.3-1,.11-.14.2-.25.28-.33.26-.29.35-.36.18-.43-.06-.02-.14.02-.22.1-.21.2-.43.62-.43.62l.19-.55-.39.09s.27-.52.51-.69c.14-.1.16-.19.06-.21-.06-.02-.18,0-.35.04-.42.13-.33-.21.16-.71.49-.5.73-.79.73-.79l.1.07s0,.04,0,.06c.07.69.57,1.22,1.17,1.26.19.01.35-.03.48-.1l.06.04s.05.09.14.23c.17.31.47.9.63,1.5.05.2.09.4.11.59.03.42-.04.87-.13,1.27Zm-2.29-5.33s.32.25.47.26c.15,0,.49,0,.49,0,0,0-.17.26-.43.24-.27-.02-.54-.49-.54-.49Zm2.06.68s-.35.3-.39.47c-.05.17-.08.39-.16.41-.08.02-.09-.08-.09-.08,0,0-.07.02-.17.03-.08.01-.18.02-.27.01-.21-.01-.46-.18-.46-.18,0,0,.26.05.45.07.04,0,.09,0,.14,0,.16-.03.33-.09.33-.09,0,0,.09-.43.26-.67,0,0,0-.02.02-.03.14-.21.15-.29.16-.42.01-.14.18-.1.1-.3-.02-.07-.05-.11-.08-.15-.05-.07-.11-.1-.21-.12-.15-.04-.44.33-.44.33l.02-.09c-.11,0-.29-.47-.64-.56-.41-.11-.5.08-.59.3-.05.14-.1,0-.13-.15-.02-.1-.04-.2-.04-.2l.04-.43-.27-.42s1.22-.98,1.57-1c.38-.02,1,.26,1.1.3,0,0,.01,0,.01,0l-.03.12s-.01,0-.01,0c-.12.05-.19.07-.19.07v.13s-.87-.21-.87-.21l-.13.1s-.05.01-.07.02c-.15.08-.48.33-.74.55-.02.02-.05.07-.08.12-.06.12-.1.28.1.31.31.06.59.11.65.24-.02-.09-.07-.25-.14-.4-.13-.28.31-.17.51.22.06.12.09.21.1.29l.24.02s.16.22.26.27c0,0,.02.01.03.01.09.02.1-.05.1-.05l.06-.15.06.15c-.05.04-.09.09-.08.15,0,.14-.02.25-.02.25l.09.1s-.19.31-.04.26c.11-.03.22-.08.31-.14l.04.11-.39.39Zm-.04-1.47s-.01-.01-.02-.02c-.09-.1-.09-.14-.05-.16l.05.14.02.04Zm.51,1.01h-.02s-.05-.03-.05-.03c0,0,.02-.02.03-.07.01-.04.03-.1.02-.18l-.21-.24s.19.09.21.24l.02.16v.08s.01.04.01.04h0s0,0,0,0Zm2.04.72c.08-.15.33-.67.33-1.09,0-.19-.05-.36-.19-.46-.31-.22-.53-.02-.69.14-.14.13-.21.18-.28.14-.08-.05-.1-.1-.09-.19v-.13c0-.13-.02-.27-.24-.39-.29-.16-.64-.19-.84-.19.13-.12.32-.28.35-.3.04,0,.7-.02.75-.02.08.07.55.46.75.58.49.33,1.18.49,1.26.5.03.02.22.15.44.33.16.12.33.26.47.41.04.04.08.08.11.12.34.39.65.9.65.91v.02s.23.07.29.09c0,.04.01.11.02.19,0,.02,0,.04,0,.07,0,.08-.05.47-.53.43h-.28c-.43-.03-.92-.05-1.27-.28-.37-.25-.87-.74-.99-.87Zm1.63,6.26c-.09-.1-.28-.36-.28-.36l.08-.07.35.4s-.09.22-.12.41c-.03.18-.08.37-.08.37,0,0-.01-.38-.08-.48-.02-.02-.05-.06-.1-.1-.05-.05-.12-.1-.17-.14-.04-.03-.07-.05-.07-.05,0,0,.28.05.35.14.07.08.21-.03.12-.13Zm-.11.01l-.58-.38s.16-.1.26.02c.11.12.33.37.33.37Zm-.95-.23c-.09-.03-.2-.02-.16-.16.02-.1.06-.11.21-.1.15,0,.24.17.4.27.16.1.05.19-.03.13-.07-.06-.34-.12-.43-.14Zm.19.26c-.05.11-.23.03-.23.03v-.19s.28.06.23.17Zm-.48-.66s0-.01,0-.02c.03-.21.29-.1.38-.09.1,0,.31.1.31.1,0,0-.12.04-.3.05-.15,0-.31.07-.37.02-.02-.01-.02-.04-.02-.07Zm-.63,4.24s.04.03.07.06c.06.05.13.11.13.11l.03-.08c.04-.12.14-.29.2-.28h.09c.09,0,.1,0,.11.02v.05s-.02.06-.02.09c0,.04,0,.09.03.14,0,0,.04.07.07.14,0,0-.03.04-.05.07-.06-.04-.14-.08-.18-.09-.05,0-.14.04-.21.09-.02-.03-.05-.07-.09-.07-.05,0-.14.03-.18.04,0,0-.01,0-.03,0-.02,0-.04,0-.06-.02.02-.07.06-.17.09-.26Zm.83.69v-.2s.21.18.3.25c.09.06-.02.24-.04.32-.02.08.03.16-.03.13-.06-.02-.15.13-.23.33-.08.2-.12.37-.12.37l-.13-.37s.08-.09.19-.16c.09-.07.09-.32.09-.32,0,0,.07.14.07-.16,0-.3-.1-.18-.1-.18Zm0-.38h0Zm-.96,1.61c-.1.03-.21.05-.3.07-.21.03-.45.05-.51.06,0,0,0,0,0,0-.01,0,0,0,0,0,.05-.02.09-.29.22-.61.14-.33.18-.56.18-.56,0,0,.19-.05.34-.09.16-.05.53,0,.53,0,0,0-.02.3.04.3.06,0,.09-.21.16-.21.08,0,.03.1.03.1,0,0,.14-.11.09.08-.05.19-.32.34-.39.39-.05.04-.03.24-.02.31,0,.02,0,.03,0,.03,0,0-.18.07-.38.13Zm2.54,1.57v.13s-.17.23-.81.24c-.06,0-.12,0-.19,0-.79-.03-.93-.18-1.07-.36-.14-.18-.05-.36-.02-.85.04-.49.01-.68.01-.68,0,0,0,0,0,0,.04.03.24.2.32.25l-.12,1.17s-.02.3.81.34c.84.04,1.06-.23,1.06-.23Zm-.46-2.41s.03-.06.04-.06c.04,0,.13,0,.13,0l.02.09.08.38s.1.27-.04.3c-.13.03-.23-.21-.3-.19-.05.01-.23.21-.23.21,0,0,.1.11.1.18,0,.07,0,.34-.09.35-.08.01-.07-.39-.27-.4-.21-.01-.3.21-.36.21-.06,0-.04-.2-.04-.2l.09-.18s.02.02.09,0c.08-.01.11-.18.11-.28,0-.09-.09-.1-.09-.1,0,0,.08-.07.09-.22,0-.15-.02-.27.15-.33.12-.05.21.2.29.24.09.17.16.05.21-.03Zm.31-1.71v.03c-.01.21-.08.48-.13.63-.02-.02-.05-.05-.08-.06-.03-.01-.07-.02-.1-.02-.05,0-.08.05-.11.09-.06.08-.15.18-.44.16-.21-.01-.36-.07-.44-.16-.05-.06-.08-.14-.08-.24v-.05s0-.03,0-.04c0-.26-.12-.63-.16-.75.06-.06.2-.22.22-.42v-.02c.03-.17.07-.42.07-.62,0-.07,0-.14-.02-.19-.02-.11-.09-.2-.15-.29-.05-.05-.09-.12-.12-.18.02,0,.03,0,.05,0,.21.01.23-.17.45-.2.23-.02.26.13.26.13,0,0,.04,1.09.04,1.37s.15.29.09.37c-.06.07-.24-.15-.31-.12-.08.03.21.21.13.27-.08.07-.23-.28-.31-.21-.08.07.18.33.35.33.17-.01.38-.3.38-.3l-.16-.15s0-1.25,0-1.48c.02-.23-.28-.35-.41-.37-.14-.03-.31.07-.41.14-.06.04-.15-.03-.22-.09,0-.13.04-.24.1-.29.03-.02.05-.03.09-.02l.21.09c.19.09.35.17.41.04,0-.01.01-.03.01-.04,0-.06-.05-.12-.11-.17-.06-.06-.09-.09-.1-.12.11.03.34.13.45.31.04.07.05.22.05.39,0,.1,0,.22,0,.33,0,.12,0,.22,0,.32,0,.21.02.34.08.41h.02c.08.09.14.16.17.22.02.05.03.1.03.16,0,.01,0,.03,0,.04v.02c0,.11.04.22.09.34.05.12.1.25.1.39Zm-.08-3.1s-.24-.36-.43-.36c-.19-.01-.37-.14-.37-.14,0,0,.22.02.35-.13.12-.15.34-.43.34-.43,0,0,.23.39.23.55-.02.23-.11.52-.11.52Zm-.24-4.55c.45.26.83.48,1.01.59-.03,0-.06,0-.07,0-.02-.01-.53-.33-.94-.59Zm1.64,3.3s-.03-.04-.06-.07c-.15-.16-.46-.54-.61-.86-.12-.27-.19-.66-.19-.98,0-.11,0-.22.03-.31,0-.04.02-.08.03-.12.04-.08.08-.13.12-.14,0,0,.02,0,.03,0-.02.05-.06.16-.08.29-.03.12-.05.27-.05.43,0,.21.03.45.13.68h0s0,.01,0,.01c.09.13.19.22.29.32.11.11.22.22.31.36.01.02.03.05.04.07.08.13.17.23.24.31-.11,0-.21-.01-.23-.01Zm.25-.26s0-.02.02-.03c.05.09.06.11.12.2-.04-.04-.09-.1-.14-.16Zm.69-.89c-.05-.08-.13-.22-.25-.25-.05-.02-.1-.04-.15-.08.12-.01.28-.01.36.05.1.07.24.08.37.08-.16.1-.28.17-.33.2Zm-.17-.66h-.13c-.31.01-.46.02-.57-.11-.09-.1-.11-.18-.12-.21.05-.06.28-.31.6-.12.36.24.7.4.76.44,0,0,.03.04.06.07-.15-.03-.37-.08-.6-.07Zm.74-.29l-.24-.18c-.36-.28-.6-.46-1.15-.53-.24-.01-.43.04-.52.07-.03-.04-.04-.09-.04-.11h0s.02-.02.07-.02c.25.02.93.06,1.33.24h0c.39.17.75.51.97.76.11.12.2.23.23.27,0,.02-.02.06-.04.11-.01.03-.03.07-.05.11-.07-.17-.23-.46-.56-.71Zm.47-.22s0,0,.01,0c0,.01,0,.02.01.04,0-.01-.02-.02-.03-.04Zm.19,2.59c-.15.58-.17.58-.28.57,0,0,0-.01,0-.02,0-.08.11-.31.15-.38v-.03c.09-.16.13-.56.13-.84,0-.06,0-.12,0-.17v-.07c0-.08,0-.15.02-.2.02.08.06.29.06.55,0,.18-.01.38-.07.59Zm-.4-4.42c-.13.45-.18.72-.2.83,0,.04,0,.06,0,.06h-.02s-.13,0-.13,0h0s0,0,0,0h0l.09.1.08.09.05.14.07.21.27-.02h0s.04.08.05.12c0,.01,0,.02.01.03h0s.03.08.04.12l-.31.03h-.04s-.07-.06-.11-.09h0v-.02s-.11-.34-.11-.34l-.11-.38h0s0-.01,0-.01c0,0,.06-.83.19-1.09.13-.26.69-.63.69-.63l-.18-.17s.32-.13.54-.15c.22-.02.46.1.61.22,0,0,.01.01.02.01.14.12.32.32.32.32,0,0-.08-.05-.2-.11-.16-.08-.38-.18-.54-.17-.27.02-.89.24-1.09.87Zm.94.18c-.02-.19-.57-.49-.23-.66,0,0,.55-.23.8-.06.26.17.47.87.47.87v.53s-.15-.47-.27-.44c-.12.03-.25.32-.25.32,0,0-.18.33-.47.2-.3-.13-.04-.57-.06-.77Zm1.4,2.34c-.07.37-.09.75-.35.66-.26-.1-.63-.27-.7-.92-.07-.65.1-.87.1-.87,0,0-.26.02-.29-.1-.03-.11.26-.05.31-.2.05-.15.25-.41.25-.41,0,0,.18.17.28.37.1.19.46,1.09.4,1.47Z"></path></g></svg>